<svg xmlns="http://www.w3.org/2000/svg" viewBox="0 0 750 500"><g id="freepik--Floor--inject-19"><path d="M706.91,472.79c0,.15-148.61.26-331.89.26s-331.93-.11-331.93-.26,148.58-.26,331.93-.26S706.91,472.65,706.91,472.79Z" style="fill:#263238"></path></g><g id="freepik--kanban-method--inject-19"><path d="M165.9,65.73H584.1a5.38,5.38,0,0,1,5.38,5.38V397.53a4.55,4.55,0,0,1-4.55,4.55H165.08a4.55,4.55,0,0,1-4.55-4.55V71.11A5.38,5.38,0,0,1,165.9,65.73Z" style="fill:#fff"></path><path d="M165.81,65.73H584.19A5.29,5.29,0,0,1,589.48,71V93.48a0,0,0,0,1,0,0h-429a0,0,0,0,1,0,0V71A5.29,5.29,0,0,1,165.81,65.73Z" style="fill:#e0e0e0"></path><path d="M584.92,402.08l.25,0a3.61,3.61,0,0,0,.73-.1,4.53,4.53,0,0,0,3.42-3.41,13.85,13.85,0,0,0,.12-2.64c0-1.92,0-4.16,0-6.69,0-10.14,0-25.09,0-44.35,0-38.51,0-94.24-.08-163.1q0-25.82,0-54,0-14.1,0-28.75,0-7.32,0-14.79V72.93a10.07,10.07,0,0,0-.34-3.66,5.28,5.28,0,0,0-2.36-2.7,5,5,0,0,0-1.73-.56A14.47,14.47,0,0,0,583,66H461.31l-296.15.08a5.08,5.08,0,0,0-4.36,4.8c0,.79,0,1.63,0,2.44V216.85c0,49.55,0,97.34,0,142.87v37.86a4.32,4.32,0,0,0,1.71,3.39,4.45,4.45,0,0,0,1.77.8,12,12,0,0,0,2,.08h20.4l62.75,0,112.63,0,163.09.08,44.34,0,11.53,0,3.93,0-3.93,0-11.53,0-44.34,0L362,402.27l-112.63,0H166.25a12.51,12.51,0,0,1-2.1-.1,4.71,4.71,0,0,1-2-.88,4.8,4.8,0,0,1-1.9-3.75v-4.15q0-16.65,0-33.72c0-45.53,0-93.32,0-142.87q0-37.15,0-75.57v-68c0-.83,0-1.63,0-2.47a5.46,5.46,0,0,1,.7-2.46,5.65,5.65,0,0,1,4.1-2.82l296.23-.05H583a14.09,14.09,0,0,1,1.94.07,5.61,5.61,0,0,1,1.88.61,5.69,5.69,0,0,1,2.55,2.92,5.51,5.51,0,0,1,.37,1.93V84.19q0,7.47,0,14.79v28.75q0,28.19,0,54c0,68.86-.06,124.59-.08,163.1,0,19.26,0,34.21-.05,44.35,0,2.53,0,4.77,0,6.69a13.18,13.18,0,0,1-.13,2.65,4.56,4.56,0,0,1-3.48,3.43,4.48,4.48,0,0,1-.74.09Z" style="fill:#263238"></path><rect x="180.74" y="106.62" width="114.44" height="31.75" rx="2.18" style="fill:#000000"></rect><rect x="319.28" y="106.62" width="114.44" height="31.75" rx="2.36" style="fill:#000000"></rect><rect x="448.87" y="106.62" width="114.44" height="31.75" rx="2.36" style="fill:#000000"></rect><rect x="181.14" y="153.77" width="114.44" height="80.51" rx="3.92" style="fill:#fff"></rect><path d="M291.67,234.28s.34,0,1-.16a3.9,3.9,0,0,0,2.27-1.65,4,4,0,0,0,.61-2c0-.79,0-1.65,0-2.58,0-1.87,0-4,0-6.44,0-9.71-.05-23.73-.09-41.06q0-6.5,0-13.61,0-3.54,0-7.23v-1.85A3.79,3.79,0,0,0,295,156a3.7,3.7,0,0,0-2.81-2c-10.13-.06-21.07,0-32.51,0l-74.57,0a3.7,3.7,0,0,0-3.49,2.54,4.37,4.37,0,0,0-.18,1.13v32.44c0,12.47,0,24.51,0,36v4.27a3.74,3.74,0,0,0,2,3.23,3.9,3.9,0,0,0,1.9.43h22l28.36,0,41.05.09,11.16,0,2.91,0,1,0-1,0-2.91,0-11.16,0-41.05.08-28.36,0-15.79,0h-6.18a4.29,4.29,0,0,1-2.12-.49,4.17,4.17,0,0,1-2.2-3.64c0-1.42,0-2.84,0-4.27,0-11.46,0-23.5,0-36q0-9.34,0-19V157.7a4.75,4.75,0,0,1,.2-1.29,4.21,4.21,0,0,1,4-2.9l74.57,0c11.47,0,22.32,0,32.56.06a4.16,4.16,0,0,1,3.6,4.12v1.85q0,3.69,0,7.23,0,7.11,0,13.61c0,17.33-.06,31.35-.08,41.06q0,3.63,0,6.44c0,.93,0,1.79,0,2.58a4,4,0,0,1-.66,2.05,3.86,3.86,0,0,1-2.34,1.64A3.17,3.17,0,0,1,291.67,234.28Z" style="fill:#263238"></path><path d="M279.51,125.12h-83.1a2.62,2.62,0,0,1-2.62-2.62h0a2.62,2.62,0,0,1,2.62-2.62h83.1a2.61,2.61,0,0,1,2.61,2.62h0A2.61,2.61,0,0,1,279.51,125.12Z" style="fill:#fff"></path><path d="M402,125.12H351a2.62,2.62,0,0,1-2.62-2.62h0a2.62,2.62,0,0,1,2.62-2.62h51a2.62,2.62,0,0,1,2.62,2.62h0A2.62,2.62,0,0,1,402,125.12Z" style="fill:#fff"></path><path d="M531.61,125.12h-51A2.61,2.61,0,0,1,478,122.5h0a2.61,2.61,0,0,1,2.61-2.62h51a2.62,2.62,0,0,1,2.62,2.62h0A2.62,2.62,0,0,1,531.61,125.12Z" style="fill:#fff"></path><path d="M252.74,174.06h-56a3.2,3.2,0,0,1-3.2-3.2h0a3.2,3.2,0,0,1,3.2-3.2h56a3.19,3.19,0,0,1,3.19,3.2h0A3.19,3.19,0,0,1,252.74,174.06Z" style="fill:#263238"></path><path d="M252.74,174.08h-56a3.22,3.22,0,1,1,0-6.44h56a3.22,3.22,0,0,1,0,6.44Zm-56-6.39a3.17,3.17,0,0,0,0,6.34h56a3.17,3.17,0,0,0,0-6.34Z" style="fill:#fff"></path><path d="M280.19,194.9H196.71a3.2,3.2,0,0,1-3.2-3.2h0a3.21,3.21,0,0,1,3.2-3.2h83.48a3.2,3.2,0,0,1,3.19,3.2h0A3.19,3.19,0,0,1,280.19,194.9Z" style="fill:#e0e0e0"></path><path d="M280.19,194.93H196.71a3.23,3.23,0,0,1,0-6.45h83.48a3.23,3.23,0,0,1,0,6.45Zm-83.48-6.4a3.18,3.18,0,0,0,0,6.35h83.48a3.18,3.18,0,0,0,0-6.35Z" style="fill:#fff"></path><path d="M238.4,206.58H196.71a3.2,3.2,0,0,1-3.2-3.19h0a3.2,3.2,0,0,1,3.2-3.2H238.4a3.2,3.2,0,0,1,3.2,3.2h0A3.2,3.2,0,0,1,238.4,206.58Z" style="fill:#e0e0e0"></path><path d="M238.4,206.61H196.71a3.23,3.23,0,0,1,0-6.45H238.4a3.23,3.23,0,0,1,0,6.45Zm-41.69-6.4a3.18,3.18,0,0,0,0,6.35H238.4a3.18,3.18,0,0,0,0-6.35Z" style="fill:#fff"></path><circle cx="283.38" cy="166.67" r="1.64" style="fill:#263238"></circle><path d="M283.38,168.34a1.67,1.67,0,1,1,1.67-1.67A1.67,1.67,0,0,1,283.38,168.34Zm0-3.28a1.62,1.62,0,1,0,1.62,1.61A1.61,1.61,0,0,0,283.38,165.06Z" style="fill:#fff"></path><path d="M285,170.86a1.65,1.65,0,1,1-1.65-1.64A1.64,1.64,0,0,1,285,170.86Z" style="fill:#263238"></path><path d="M283.38,172.53a1.67,1.67,0,1,1,1.67-1.67A1.67,1.67,0,0,1,283.38,172.53Zm0-3.29a1.62,1.62,0,1,0,1.62,1.62A1.62,1.62,0,0,0,283.38,169.24Z" style="fill:#fff"></path><circle cx="283.38" cy="175.04" r="1.64" style="fill:#263238"></circle><path d="M283.38,176.71a1.67,1.67,0,1,1,1.67-1.67A1.67,1.67,0,0,1,283.38,176.71Zm0-3.28A1.62,1.62,0,1,0,285,175,1.61,1.61,0,0,0,283.38,173.43Z" style="fill:#fff"></path><path d="M202.89,220a4.69,4.69,0,1,1-4.69-4.7A4.69,4.69,0,0,1,202.89,220Z" style="fill:#000000"></path><path d="M198.2,224.74a4.72,4.72,0,1,1,4.72-4.71A4.72,4.72,0,0,1,198.2,224.74Zm0-9.38a4.67,4.67,0,1,0,4.67,4.67A4.67,4.67,0,0,0,198.2,215.36Z" style="fill:#fff"></path><path d="M214.88,220a4.69,4.69,0,1,1-4.69-4.7A4.69,4.69,0,0,1,214.88,220Z" style="fill:#263238"></path><path d="M210.19,224.74a4.72,4.72,0,1,1,4.72-4.71A4.72,4.72,0,0,1,210.19,224.74Zm0-9.38a4.67,4.67,0,1,0,4.67,4.67A4.67,4.67,0,0,0,210.19,215.36Z" style="fill:#fff"></path><path d="M226.87,220a4.69,4.69,0,1,1-4.69-4.7A4.69,4.69,0,0,1,226.87,220Z" style="fill:#455a64"></path><path d="M222.18,224.74A4.72,4.72,0,1,1,226.9,220,4.72,4.72,0,0,1,222.18,224.74Zm0-9.38a4.67,4.67,0,1,0,4.67,4.67A4.67,4.67,0,0,0,222.18,215.36Z" style="fill:#fff"></path><rect x="318.06" y="222.65" width="114.44" height="80.51" rx="3.92" style="fill:#fff"></rect><path d="M428.59,303.15a5.8,5.8,0,0,0,1-.15,3.9,3.9,0,0,0,2.27-1.66,4,4,0,0,0,.61-2c0-.79,0-1.65,0-2.58q0-2.8,0-6.45c0-9.7-.05-23.73-.08-41q0-6.51,0-13.61c0-2.37,0-4.78,0-7.24v-1.85a3.87,3.87,0,0,0-.41-1.7,3.71,3.71,0,0,0-2.82-2c-10.13-.06-21.06,0-32.51,0l-74.56,0a3.68,3.68,0,0,0-3.5,2.54,4.24,4.24,0,0,0-.18,1.13V259c0,12.47,0,24.5,0,36v4.27a3.72,3.72,0,0,0,1.95,3.23,3.8,3.8,0,0,0,1.9.44h6.18l15.79,0,28.36,0,41,.08,11.17.05,2.9,0c.65,0,1,0,1,0l-1,0-2.9,0-11.17.05-41,.09-28.36,0h-22a4.4,4.4,0,0,1-2.12-.49,4.2,4.2,0,0,1-2.2-3.64c0-1.42,0-2.84,0-4.28,0-11.46,0-23.49,0-36V240c0-3.22,0-6.46,0-9.73v-3.68a4.64,4.64,0,0,1,.21-1.29,4.19,4.19,0,0,1,4-2.9l74.56,0c11.47,0,22.32,0,32.57.06a4.1,4.1,0,0,1,3.13,2.21,4.22,4.22,0,0,1,.46,1.9v1.85c0,2.46,0,4.87,0,7.24q0,7.1,0,13.61c0,17.32-.06,31.35-.08,41q0,3.65,0,6.45c0,.93,0,1.79,0,2.58a4,4,0,0,1-.66,2,3.88,3.88,0,0,1-2.34,1.65A2.92,2.92,0,0,1,428.59,303.15Z" style="fill:#263238"></path><path d="M389.66,242.93h-56a3.19,3.19,0,0,1-3.19-3.2h0a3.19,3.19,0,0,1,3.19-3.19h56a3.2,3.2,0,0,1,3.2,3.19h0A3.2,3.2,0,0,1,389.66,242.93Z" style="fill:#455a64"></path><path d="M389.66,243h-56a3.23,3.23,0,0,1,0-6.45h56a3.23,3.23,0,0,1,0,6.45Zm-56-6.4a3.18,3.18,0,0,0,0,6.35h56a3.18,3.18,0,0,0,0-6.35Z" style="fill:#fff"></path><path d="M417.11,263.78H333.63a3.2,3.2,0,0,1-3.19-3.2h0a3.19,3.19,0,0,1,3.19-3.2h83.48a3.2,3.2,0,0,1,3.2,3.2h0A3.21,3.21,0,0,1,417.11,263.78Z" style="fill:#e0e0e0"></path><path d="M417.11,263.8H333.63a3.23,3.23,0,0,1,0-6.45h83.48a3.23,3.23,0,0,1,0,6.45Zm-83.48-6.4a3.18,3.18,0,0,0,0,6.35h83.48a3.18,3.18,0,0,0,0-6.35Z" style="fill:#fff"></path><path d="M375.32,275.46H333.63a3.19,3.19,0,0,1-3.19-3.2h0a3.2,3.2,0,0,1,3.19-3.2h41.69a3.2,3.2,0,0,1,3.2,3.2h0A3.2,3.2,0,0,1,375.32,275.46Z" style="fill:#e0e0e0"></path><path d="M375.32,275.49H333.63a3.23,3.23,0,0,1,0-6.45h41.69a3.23,3.23,0,0,1,0,6.45Zm-41.69-6.4a3.17,3.17,0,0,0,0,6.34h41.69a3.17,3.17,0,0,0,0-6.34Z" style="fill:#fff"></path><path d="M422,235.55a1.65,1.65,0,1,1-1.64-1.64A1.64,1.64,0,0,1,422,235.55Z" style="fill:#263238"></path><path d="M420.31,237.22a1.67,1.67,0,1,1,1.66-1.67A1.67,1.67,0,0,1,420.31,237.22Zm0-3.29a1.62,1.62,0,1,0,1.61,1.62A1.62,1.62,0,0,0,420.31,233.93Z" style="fill:#fff"></path><circle cx="420.31" cy="239.73" r="1.64" style="fill:#263238"></circle><path d="M420.31,241.4a1.67,1.67,0,1,1,1.66-1.67A1.67,1.67,0,0,1,420.31,241.4Zm0-3.28a1.62,1.62,0,1,0,1.61,1.61A1.61,1.61,0,0,0,420.31,238.12Z" style="fill:#fff"></path><path d="M422,243.92a1.65,1.65,0,1,1-1.64-1.64A1.64,1.64,0,0,1,422,243.92Z" style="fill:#263238"></path><path d="M420.31,245.59a1.67,1.67,0,1,1,1.66-1.67A1.67,1.67,0,0,1,420.31,245.59Zm0-3.29a1.62,1.62,0,1,0,1.61,1.62A1.62,1.62,0,0,0,420.31,242.3Z" style="fill:#fff"></path><circle cx="335.13" cy="288.9" r="4.69" style="fill:#000000"></circle><path d="M335.13,293.62a4.72,4.72,0,1,1,4.71-4.72A4.73,4.73,0,0,1,335.13,293.62Zm0-9.38a4.67,4.67,0,1,0,4.66,4.66A4.67,4.67,0,0,0,335.13,284.24Z" style="fill:#fff"></path><path d="M351.8,288.9a4.69,4.69,0,1,1-4.69-4.69A4.69,4.69,0,0,1,351.8,288.9Z" style="fill:#263238"></path><path d="M347.11,293.62a4.72,4.72,0,1,1,4.72-4.72A4.72,4.72,0,0,1,347.11,293.62Zm0-9.38a4.67,4.67,0,1,0,4.67,4.66A4.66,4.66,0,0,0,347.11,284.24Z" style="fill:#fff"></path><circle cx="359.1" cy="288.9" r="4.69" style="fill:#455a64"></circle><path d="M359.1,293.62a4.72,4.72,0,1,1,4.72-4.72A4.72,4.72,0,0,1,359.1,293.62Zm0-9.38a4.67,4.67,0,1,0,4.67,4.66A4.66,4.66,0,0,0,359.1,284.24Z" style="fill:#fff"></path><rect x="318.64" y="152.34" width="114.44" height="64.18" rx="3.92" style="fill:#fff"></rect><path d="M429.16,216.52a8.18,8.18,0,0,0,.89-.13,3.89,3.89,0,0,0,2.16-1.42,3.69,3.69,0,0,0,.75-1.75,21.92,21.92,0,0,0,.05-2.34c0-1.71,0-3.68,0-5.9,0-8.88,0-21.71-.08-37.56q0-3,0-6.08v-4.75a4.06,4.06,0,0,0-.21-1.52,3.68,3.68,0,0,0-2.05-2.22,8.22,8.22,0,0,0-3.21-.3h-6.87l-29.77,0-68.21,0a3.68,3.68,0,0,0-3.35,2.17,4.58,4.58,0,0,0-.32,2.1v28.55q0,8.57,0,16.8c0,2.74,0,5.46,0,8.14v2a3.93,3.93,0,0,0,.37,1.83,3.7,3.7,0,0,0,2.91,2.05l55.68.08,37.55.09,10.21.05,2.66,0c.6,0,.9,0,.9,0s-.3,0-.9,0l-2.66,0-10.21.05-37.55.08-55.74,0a4.15,4.15,0,0,1-3.28-2.32,4.28,4.28,0,0,1-.42-2v-2c0-2.68,0-5.4,0-8.14v-16.8c0-5.7,0-11.51,0-17.4V156.87a5.05,5.05,0,0,1,.36-2.31,4.21,4.21,0,0,1,3.83-2.48l68.21,0,29.77,0h8.55a4.34,4.34,0,0,1,1.7.34,4.17,4.17,0,0,1,2.26,2.47,4.3,4.3,0,0,1,.22,1.65v4.75q0,3.1,0,6.08c0,15.85-.06,28.68-.08,37.56,0,2.22,0,4.19,0,5.9a19.86,19.86,0,0,1-.07,2.36,4,4,0,0,1-3,3.2A3.14,3.14,0,0,1,429.16,216.52Z" style="fill:#263238"></path><path d="M351,172.59H332.54a3.2,3.2,0,0,1-3.2-3.2h0a3.2,3.2,0,0,1,3.2-3.2H351a3.2,3.2,0,0,1,3.2,3.2h0A3.21,3.21,0,0,1,351,172.59Z" style="fill:#000000"></path><path d="M351,172.61H332.54a3.23,3.23,0,1,1,0-6.45H351a3.23,3.23,0,0,1,0,6.45Zm-18.42-6.4a3.18,3.18,0,1,0,0,6.35H351a3.18,3.18,0,0,0,0-6.35Z" style="fill:#fff"></path><path d="M416,187.63H332.54a3.2,3.2,0,0,1-3.2-3.2h0a3.2,3.2,0,0,1,3.2-3.2H416a3.2,3.2,0,0,1,3.2,3.2h0A3.2,3.2,0,0,1,416,187.63Z" style="fill:#e0e0e0"></path><path d="M416,187.65H332.54a3.22,3.22,0,1,1,0-6.44H416a3.22,3.22,0,1,1,0,6.44Zm-83.47-6.39a3.17,3.17,0,1,0,0,6.34H416a3.17,3.17,0,1,0,0-6.34Z" style="fill:#fff"></path><path d="M422.52,162.66a1.64,1.64,0,1,1-1.64-1.64A1.63,1.63,0,0,1,422.52,162.66Z" style="fill:#263238"></path><path d="M420.88,164.33a1.67,1.67,0,1,1,1.67-1.67A1.67,1.67,0,0,1,420.88,164.33Zm0-3.29a1.62,1.62,0,1,0,1.62,1.62A1.62,1.62,0,0,0,420.88,161Z" style="fill:#fff"></path><path d="M422.52,166.84a1.64,1.64,0,1,1-1.64-1.64A1.64,1.64,0,0,1,422.52,166.84Z" style="fill:#263238"></path><path d="M420.88,168.51a1.67,1.67,0,1,1,1.67-1.67A1.67,1.67,0,0,1,420.88,168.51Zm0-3.28a1.62,1.62,0,1,0,1.62,1.61A1.61,1.61,0,0,0,420.88,165.23Z" style="fill:#fff"></path><path d="M422.52,171a1.64,1.64,0,1,1-1.64-1.64A1.63,1.63,0,0,1,422.52,171Z" style="fill:#263238"></path><path d="M420.88,172.7a1.67,1.67,0,1,1,1.67-1.67A1.67,1.67,0,0,1,420.88,172.7Zm0-3.29A1.62,1.62,0,1,0,422.5,171,1.62,1.62,0,0,0,420.88,169.41Z" style="fill:#fff"></path><path d="M338.72,199.43a4.69,4.69,0,1,1-4.69-4.69A4.69,4.69,0,0,1,338.72,199.43Z" style="fill:#000000"></path><path d="M334,204.15a4.72,4.72,0,1,1,4.71-4.72A4.73,4.73,0,0,1,334,204.15Zm0-9.38a4.67,4.67,0,1,0,4.66,4.66A4.67,4.67,0,0,0,334,194.77Z" style="fill:#fff"></path><path d="M419.21,205.07a2.5,2.5,0,0,1-2.5-2.51v-3a.12.12,0,0,1,.12-.13.13.13,0,0,1,.13.13v3a2.26,2.26,0,1,0,4.51,0v-5.3a1.64,1.64,0,1,0-3.27,0v5.31a.79.79,0,0,0,1.58,0v-4.95a.12.12,0,0,1,.13-.12.12.12,0,0,1,.12.12v4.95a1,1,0,0,1-2.08,0v-5.31a1.89,1.89,0,1,1,3.77,0v5.3A2.51,2.51,0,0,1,419.21,205.07Z" style="fill:#263238"></path><path d="M423.29,382.94a12.2,12.2,0,0,1,5,0,12.2,12.2,0,0,1-5,0Z" style="fill:#e0e0e0"></path><path d="M413.28,382.94a12.2,12.2,0,0,1,5,0,12.2,12.2,0,0,1-5,0Z" style="fill:#e0e0e0"></path><path d="M403.27,382.94a12.15,12.15,0,0,1,5,0,12.15,12.15,0,0,1-5,0Z" style="fill:#e0e0e0"></path><path d="M393.25,382.94a12.2,12.2,0,0,1,5,0,12.2,12.2,0,0,1-5,0Z" style="fill:#e0e0e0"></path><path d="M383.24,382.94a12.2,12.2,0,0,1,5,0,12.2,12.2,0,0,1-5,0Z" style="fill:#e0e0e0"></path><path d="M373.23,382.94a12.15,12.15,0,0,1,5,0,12.15,12.15,0,0,1-5,0Z" style="fill:#e0e0e0"></path><path d="M363.21,382.94a12.2,12.2,0,0,1,5,0,12.2,12.2,0,0,1-5,0Z" style="fill:#e0e0e0"></path><path d="M353.2,382.94a12.2,12.2,0,0,1,5,0,12.2,12.2,0,0,1-5,0Z" style="fill:#e0e0e0"></path><path d="M343.19,382.94a12.15,12.15,0,0,1,5,0,12.15,12.15,0,0,1-5,0Z" style="fill:#e0e0e0"></path><path d="M333.17,382.94a12.2,12.2,0,0,1,5,0,12.2,12.2,0,0,1-5,0Z" style="fill:#e0e0e0"></path><path d="M323.16,382.94a6.31,6.31,0,0,1,2.5-.26,6.39,6.39,0,0,1,2.51.26,6.17,6.17,0,0,1-2.51.26A6.11,6.11,0,0,1,323.16,382.94Z" style="fill:#e0e0e0"></path><path d="M317.78,376.62a6.31,6.31,0,0,1,.26,2.5,11.2,11.2,0,0,0,.57,2.32c-.05,0-.29-.13-.56-.53a3.54,3.54,0,0,1-.53-1.78A5.91,5.91,0,0,1,317.78,376.62Z" style="fill:#e0e0e0"></path><path d="M317.78,366.6a12.2,12.2,0,0,1,0,5,12.2,12.2,0,0,1,0-5Z" style="fill:#e0e0e0"></path><path d="M317.78,356.59a12.2,12.2,0,0,1,0,5,12.2,12.2,0,0,1,0-5Z" style="fill:#e0e0e0"></path><path d="M317.78,346.58a12.15,12.15,0,0,1,0,5,12.15,12.15,0,0,1,0-5Z" style="fill:#e0e0e0"></path><path d="M317.78,336.56a12.2,12.2,0,0,1,0,5,12.2,12.2,0,0,1,0-5Z" style="fill:#e0e0e0"></path><path d="M317.78,326.55a12.2,12.2,0,0,1,0,5,12.2,12.2,0,0,1,0-5Z" style="fill:#e0e0e0"></path><path d="M321.7,318.77a10,10,0,0,0-2.18,1c-1.07.77-1.43,1.86-1.58,1.81s-.06-.32.12-.77a3.48,3.48,0,0,1,1.14-1.46,3.56,3.56,0,0,1,1.74-.68C321.41,318.62,321.7,318.7,321.7,318.77Z" style="fill:#e0e0e0"></path><path d="M331.71,318.77a12.15,12.15,0,0,1-5,0,11.71,11.71,0,0,1,5,0Z" style="fill:#e0e0e0"></path><path d="M341.73,318.77a12.2,12.2,0,0,1-5,0,11.76,11.76,0,0,1,5,0Z" style="fill:#e0e0e0"></path><path d="M351.74,318.77a12.2,12.2,0,0,1-5,0,11.76,11.76,0,0,1,5,0Z" style="fill:#e0e0e0"></path><path d="M361.75,318.77a12.15,12.15,0,0,1-5,0,11.71,11.71,0,0,1,5,0Z" style="fill:#e0e0e0"></path><path d="M371.77,318.77a12.2,12.2,0,0,1-5,0,11.76,11.76,0,0,1,5,0Z" style="fill:#e0e0e0"></path><path d="M381.78,318.77a12.2,12.2,0,0,1-5,0,11.76,11.76,0,0,1,5,0Z" style="fill:#e0e0e0"></path><path d="M391.79,318.77a12.15,12.15,0,0,1-5,0,11.71,11.71,0,0,1,5,0Z" style="fill:#e0e0e0"></path><path d="M401.81,318.77a12.2,12.2,0,0,1-5,0,11.76,11.76,0,0,1,5,0Z" style="fill:#e0e0e0"></path><path d="M411.82,318.77a6.31,6.31,0,0,1-2.5.26,6.39,6.39,0,0,1-2.51-.26,6.07,6.07,0,0,1,2.51-.27A6,6,0,0,1,411.82,318.77Z" style="fill:#e0e0e0"></path><path d="M421.83,318.77a12.15,12.15,0,0,1-5,0,11.71,11.71,0,0,1,5,0Z" style="fill:#e0e0e0"></path><path d="M431.39,320.27c-.12.1-.85-.78-2.12-1.11a9.69,9.69,0,0,0-1.69-.21c-.46-.05-.74-.11-.74-.18s.28-.14.74-.19a5,5,0,0,1,1.82.07,3.49,3.49,0,0,1,1.6,1C431.33,320,431.44,320.23,431.39,320.27Z" style="fill:#e0e0e0"></path><path d="M432.22,330.1a12.2,12.2,0,0,1,0-5,12.2,12.2,0,0,1,0,5Z" style="fill:#e0e0e0"></path><path d="M432.22,340.11a12.2,12.2,0,0,1,0-5,12.2,12.2,0,0,1,0,5Z" style="fill:#e0e0e0"></path><path d="M432.22,350.12a12.15,12.15,0,0,1,0-5,12.15,12.15,0,0,1,0,5Z" style="fill:#e0e0e0"></path><path d="M432.22,360.14a12.2,12.2,0,0,1,0-5,12.2,12.2,0,0,1,0,5Z" style="fill:#e0e0e0"></path><path d="M432.22,370.15a12.2,12.2,0,0,1,0-5,12.2,12.2,0,0,1,0,5Z" style="fill:#e0e0e0"></path><path d="M432.06,380.15c-.07,0,0-.3,0-.74s-.07-1.06-.06-1.75a6.31,6.31,0,0,1,.26-2.5,6.11,6.11,0,0,1,.26,2.5,10.42,10.42,0,0,1-.1,1.79C432.29,379.92,432.12,380.17,432.06,380.15Z" style="fill:#e0e0e0"></path><rect x="181.14" y="318.57" width="114.44" height="64.18" rx="3.92" style="fill:#fff"></rect><path d="M291.67,382.75a7.56,7.56,0,0,0,.89-.14,3.82,3.82,0,0,0,2.15-1.41,3.7,3.7,0,0,0,.76-1.75,22.22,22.22,0,0,0,0-2.35c0-1.7,0-3.67,0-5.89,0-8.88-.05-21.71-.09-37.56q0-3,0-6.08v-4.75a4.27,4.27,0,0,0-.2-1.52,3.74,3.74,0,0,0-2.05-2.22,8.29,8.29,0,0,0-3.22-.3h-6.87l-29.77,0-68.21,0a3.68,3.68,0,0,0-3.35,2.17,4.58,4.58,0,0,0-.32,2.1v28.55c0,5.7,0,11.31,0,16.8V378.6a3.7,3.7,0,0,0,3.27,3.88l55.68.08,37.56.09,10.21,0,2.65,0,.91,0-.91,0-2.65,0-10.21.05-37.56.08-55.73,0a4.18,4.18,0,0,1-3.29-2.32,4.28,4.28,0,0,1-.42-2v-2c0-2.68,0-5.4,0-8.14v-16.8q0-8.56,0-17.4V323.1a5.06,5.06,0,0,1,.37-2.31,4.18,4.18,0,0,1,3.82-2.48l68.21,0,29.77,0h8.55a4.3,4.3,0,0,1,1.7.34,4.19,4.19,0,0,1,2.27,2.47,4.7,4.7,0,0,1,.22,1.65c0,.54,0,1.07,0,1.6v3.15c0,2.07,0,4.1,0,6.08,0,15.85-.06,28.68-.08,37.56,0,2.22,0,4.19,0,5.89,0,.86,0,1.64-.07,2.37a4,4,0,0,1-.8,1.8,3.92,3.92,0,0,1-2.23,1.4A3.07,3.07,0,0,1,291.67,382.75Z" style="fill:#263238"></path><path d="M240.6,338.81H195a3.19,3.19,0,0,1-3.2-3.19h0a3.2,3.2,0,0,1,3.2-3.2H240.6a3.2,3.2,0,0,1,3.2,3.2h0A3.19,3.19,0,0,1,240.6,338.81Z" style="fill:#455a64"></path><path d="M240.6,338.84H195a3.23,3.23,0,0,1,0-6.45H240.6a3.23,3.23,0,0,1,0,6.45ZM195,332.44a3.18,3.18,0,0,0,0,6.35H240.6a3.18,3.18,0,0,0,0-6.35Z" style="fill:#fff"></path><path d="M278.51,353.86H195a3.2,3.2,0,0,1-3.2-3.2h0a3.2,3.2,0,0,1,3.2-3.2h83.47a3.2,3.2,0,0,1,3.2,3.2h0A3.2,3.2,0,0,1,278.51,353.86Z" style="fill:#e0e0e0"></path><path d="M278.51,353.88H195a3.23,3.23,0,0,1,0-6.45h83.47a3.23,3.23,0,1,1,0,6.45ZM195,347.48a3.18,3.18,0,0,0,0,6.35h83.47a3.17,3.17,0,1,0,0-6.34Z" style="fill:#fff"></path><circle cx="283.38" cy="328.89" r="1.64" style="fill:#263238"></circle><path d="M283.38,330.56a1.67,1.67,0,1,1,1.67-1.67A1.67,1.67,0,0,1,283.38,330.56Zm0-3.29a1.62,1.62,0,1,0,1.62,1.62A1.62,1.62,0,0,0,283.38,327.27Z" style="fill:#fff"></path><path d="M285,333.07a1.65,1.65,0,1,1-1.65-1.64A1.64,1.64,0,0,1,285,333.07Z" style="fill:#263238"></path><path d="M283.38,334.74a1.67,1.67,0,1,1,1.67-1.67A1.67,1.67,0,0,1,283.38,334.74Zm0-3.28a1.62,1.62,0,1,0,1.62,1.61A1.61,1.61,0,0,0,283.38,331.46Z" style="fill:#fff"></path><circle cx="283.38" cy="337.26" r="1.64" style="fill:#263238"></circle><path d="M283.38,338.93a1.67,1.67,0,1,1,1.67-1.67A1.67,1.67,0,0,1,283.38,338.93Zm0-3.29a1.62,1.62,0,1,0,1.62,1.62A1.62,1.62,0,0,0,283.38,335.64Z" style="fill:#fff"></path><path d="M201.22,365.66a4.69,4.69,0,1,1-4.69-4.69A4.69,4.69,0,0,1,201.22,365.66Z" style="fill:#000000"></path><path d="M196.53,370.38a4.72,4.72,0,1,1,4.72-4.72A4.72,4.72,0,0,1,196.53,370.38Zm0-9.38a4.66,4.66,0,1,0,4.67,4.66A4.66,4.66,0,0,0,196.53,361Z" style="fill:#fff"></path><path d="M213.21,365.66a4.69,4.69,0,1,1-4.69-4.69A4.69,4.69,0,0,1,213.21,365.66Z" style="fill:#263238"></path><path d="M208.52,370.38a4.72,4.72,0,1,1,4.72-4.72A4.72,4.72,0,0,1,208.52,370.38Zm0-9.38a4.66,4.66,0,1,0,4.67,4.66A4.66,4.66,0,0,0,208.52,361Z" style="fill:#fff"></path><rect x="374.27" y="342.77" width="4.12" height="18.45" style="fill:#e0e0e0"></rect><rect x="374.27" y="342.77" width="4.12" height="18.45" transform="translate(24.33 728.32) rotate(-90)" style="fill:#e0e0e0"></rect><path d="M288.71,306.75a12.2,12.2,0,0,1,5,0,12.2,12.2,0,0,1-5,0Z" style="fill:#e0e0e0"></path><path d="M278.7,306.75a12.15,12.15,0,0,1,5,0,12.15,12.15,0,0,1-5,0Z" style="fill:#e0e0e0"></path><path d="M268.68,306.75a12.2,12.2,0,0,1,5,0,12.2,12.2,0,0,1-5,0Z" style="fill:#e0e0e0"></path><path d="M258.67,306.75a12.2,12.2,0,0,1,5,0,12.2,12.2,0,0,1-5,0Z" style="fill:#e0e0e0"></path><path d="M248.66,306.75a12.15,12.15,0,0,1,5,0,12.15,12.15,0,0,1-5,0Z" style="fill:#e0e0e0"></path><path d="M238.64,306.75a12.2,12.2,0,0,1,5,0,12.2,12.2,0,0,1-5,0Z" style="fill:#e0e0e0"></path><path d="M228.63,306.75a6.31,6.31,0,0,1,2.5-.26,6.39,6.39,0,0,1,2.51.26,6.17,6.17,0,0,1-2.51.26A6.11,6.11,0,0,1,228.63,306.75Z" style="fill:#e0e0e0"></path><path d="M218.61,306.75a6.39,6.39,0,0,1,2.51-.26,6.31,6.31,0,0,1,2.5.26,6.11,6.11,0,0,1-2.5.26A6.17,6.17,0,0,1,218.61,306.75Z" style="fill:#e0e0e0"></path><path d="M208.6,306.75a12.2,12.2,0,0,1,5,0,12.2,12.2,0,0,1-5,0Z" style="fill:#e0e0e0"></path><path d="M198.59,306.75a12.15,12.15,0,0,1,5,0,12.15,12.15,0,0,1-5,0Z" style="fill:#e0e0e0"></path><path d="M188.57,306.75a6.39,6.39,0,0,1,2.51-.26,6.31,6.31,0,0,1,2.5.26,6.11,6.11,0,0,1-2.5.26A6.17,6.17,0,0,1,188.57,306.75Z" style="fill:#e0e0e0"></path><path d="M183.19,300.43a6.25,6.25,0,0,1,.27,2.5,10.51,10.51,0,0,0,.57,2.32c-.05,0-.3-.13-.56-.53a3.44,3.44,0,0,1-.53-1.78A6.2,6.2,0,0,1,183.19,300.43Z" style="fill:#e0e0e0"></path><path d="M183.19,290.42a12.15,12.15,0,0,1,0,5,12.15,12.15,0,0,1,0-5Z" style="fill:#e0e0e0"></path><path d="M183.19,280.4a12.2,12.2,0,0,1,0,5,12.2,12.2,0,0,1,0-5Z" style="fill:#e0e0e0"></path><path d="M183.19,270.39a12.15,12.15,0,0,1,0,5,12.15,12.15,0,0,1,0-5Z" style="fill:#e0e0e0"></path><path d="M183.19,260.37a6.17,6.17,0,0,1,.26,2.51,6.11,6.11,0,0,1-.26,2.5,6.31,6.31,0,0,1-.26-2.5A6.39,6.39,0,0,1,183.19,260.37Z" style="fill:#e0e0e0"></path><path d="M183.19,250.36a12.2,12.2,0,0,1,0,5,12.2,12.2,0,0,1,0-5Z" style="fill:#e0e0e0"></path><path d="M187.12,242.58a10.6,10.6,0,0,0-2.19,1c-1.06.77-1.42,1.86-1.57,1.81s-.06-.32.11-.76a3.54,3.54,0,0,1,1.15-1.47,3.44,3.44,0,0,1,1.73-.67C186.83,242.43,187.12,242.51,187.12,242.58Z" style="fill:#e0e0e0"></path><path d="M197.13,242.58a12.2,12.2,0,0,1-5,0,12.2,12.2,0,0,1,5,0Z" style="fill:#e0e0e0"></path><path d="M207.14,242.58a12.15,12.15,0,0,1-5,0,12.15,12.15,0,0,1,5,0Z" style="fill:#e0e0e0"></path><path d="M217.16,242.58a6.39,6.39,0,0,1-2.51.26,6.31,6.31,0,0,1-2.5-.26,6.11,6.11,0,0,1,2.5-.26A6.17,6.17,0,0,1,217.16,242.58Z" style="fill:#e0e0e0"></path><path d="M227.17,242.58a12.2,12.2,0,0,1-5,0,12.2,12.2,0,0,1,5,0Z" style="fill:#e0e0e0"></path><path d="M237.18,242.58a12.15,12.15,0,0,1-5,0,12.15,12.15,0,0,1,5,0Z" style="fill:#e0e0e0"></path><path d="M247.2,242.58a12.2,12.2,0,0,1-5,0,12.2,12.2,0,0,1,5,0Z" style="fill:#e0e0e0"></path><path d="M257.21,242.58a12.2,12.2,0,0,1-5,0,12.2,12.2,0,0,1,5,0Z" style="fill:#e0e0e0"></path><path d="M267.22,242.58a12.15,12.15,0,0,1-5,0,12.15,12.15,0,0,1,5,0Z" style="fill:#e0e0e0"></path><path d="M277.24,242.58a12.2,12.2,0,0,1-5,0,12.2,12.2,0,0,1,5,0Z" style="fill:#e0e0e0"></path><path d="M287.25,242.58a12.2,12.2,0,0,1-5,0,12.2,12.2,0,0,1,5,0Z" style="fill:#e0e0e0"></path><path d="M296.8,244.08a10.39,10.39,0,0,0-2.12-1.11,9.47,9.47,0,0,0-1.69-.21c-.45,0-.73-.11-.73-.18s.28-.14.73-.19a5.08,5.08,0,0,1,1.83.07,3.49,3.49,0,0,1,1.6.95C296.75,243.76,296.86,244,296.8,244.08Z" style="fill:#e0e0e0"></path><path d="M297.64,253.91a12.2,12.2,0,0,1,0-5,12.2,12.2,0,0,1,0,5Z" style="fill:#e0e0e0"></path><path d="M297.64,263.92a6.11,6.11,0,0,1-.26-2.5,6.17,6.17,0,0,1,.26-2.51,6.39,6.39,0,0,1,.26,2.51A6.31,6.31,0,0,1,297.64,263.92Z" style="fill:#e0e0e0"></path><path d="M297.64,273.93a12.15,12.15,0,0,1,0-5,12.15,12.15,0,0,1,0,5Z" style="fill:#e0e0e0"></path><path d="M297.64,284a12.2,12.2,0,0,1,0-5,12.2,12.2,0,0,1,0,5Z" style="fill:#e0e0e0"></path><path d="M297.64,294a12.15,12.15,0,0,1,0-5,12.15,12.15,0,0,1,0,5Z" style="fill:#e0e0e0"></path><path d="M297.47,304c-.07,0,0-.3,0-.74s-.06-1.06-.05-1.75a6.11,6.11,0,0,1,.26-2.5,6.31,6.31,0,0,1,.26,2.5,11.55,11.55,0,0,1-.1,1.79C297.7,303.73,297.54,304,297.47,304Z" style="fill:#e0e0e0"></path><rect x="239.68" y="267.5" width="4.12" height="18.45" style="fill:#e0e0e0"></rect><rect x="239.68" y="267.5" width="4.12" height="18.45" transform="translate(-34.98 518.46) rotate(-90)" style="fill:#e0e0e0"></rect><path d="M554.39,379.55a12.15,12.15,0,0,1,5,0,12.15,12.15,0,0,1-5,0Z" style="fill:#e0e0e0"></path><path d="M544.37,379.55a12.2,12.2,0,0,1,5,0,12.2,12.2,0,0,1-5,0Z" style="fill:#e0e0e0"></path><path d="M534.36,379.55a12.2,12.2,0,0,1,5,0,12.2,12.2,0,0,1-5,0Z" style="fill:#e0e0e0"></path><path d="M524.35,379.55a12.15,12.15,0,0,1,5,0,12.15,12.15,0,0,1-5,0Z" style="fill:#e0e0e0"></path><path d="M514.33,379.55a12.2,12.2,0,0,1,5,0,12.2,12.2,0,0,1-5,0Z" style="fill:#e0e0e0"></path><path d="M504.32,379.55a12.2,12.2,0,0,1,5,0,12.2,12.2,0,0,1-5,0Z" style="fill:#e0e0e0"></path><path d="M494.31,379.55a12.15,12.15,0,0,1,5,0,12.15,12.15,0,0,1-5,0Z" style="fill:#e0e0e0"></path><path d="M484.29,379.55a12.2,12.2,0,0,1,5,0,12.2,12.2,0,0,1-5,0Z" style="fill:#e0e0e0"></path><path d="M474.28,379.55a6.11,6.11,0,0,1,2.5-.26,6.17,6.17,0,0,1,2.51.26,6.39,6.39,0,0,1-2.51.26A6.31,6.31,0,0,1,474.28,379.55Z" style="fill:#e0e0e0"></path><path d="M464.27,379.55a12.15,12.15,0,0,1,5,0,12.15,12.15,0,0,1-5,0Z" style="fill:#e0e0e0"></path><path d="M454.25,379.55a12.2,12.2,0,0,1,5,0,12.2,12.2,0,0,1-5,0Z" style="fill:#e0e0e0"></path><path d="M448.87,373.22a6.14,6.14,0,0,1,.26,2.5,10.39,10.39,0,0,0,.58,2.33c-.06,0-.3-.14-.56-.54a3.38,3.38,0,0,1-.54-1.78A6.39,6.39,0,0,1,448.87,373.22Z" style="fill:#e0e0e0"></path><path d="M448.87,363.21a12.2,12.2,0,0,1,0,5,12.2,12.2,0,0,1,0-5Z" style="fill:#e0e0e0"></path><path d="M448.87,353.2a12.15,12.15,0,0,1,0,5,12.15,12.15,0,0,1,0-5Z" style="fill:#e0e0e0"></path><path d="M448.87,343.18a12.2,12.2,0,0,1,0,5,12.2,12.2,0,0,1,0-5Z" style="fill:#e0e0e0"></path><path d="M448.87,333.17a12.2,12.2,0,0,1,0,5,12.2,12.2,0,0,1,0-5Z" style="fill:#e0e0e0"></path><path d="M448.87,323.16a12.15,12.15,0,0,1,0,5,12.15,12.15,0,0,1,0-5Z" style="fill:#e0e0e0"></path><path d="M452.79,315.37c0,.16-1.13.19-2.18,1s-1.43,1.86-1.57,1.8-.06-.31.11-.76a3.55,3.55,0,0,1,2.88-2.14C452.51,315.22,452.79,315.31,452.79,315.37Z" style="fill:#e0e0e0"></path><path d="M462.81,315.37a12.2,12.2,0,0,1-5,0,12.2,12.2,0,0,1,5,0Z" style="fill:#e0e0e0"></path><path d="M472.82,315.37a12.2,12.2,0,0,1-5,0,12.2,12.2,0,0,1,5,0Z" style="fill:#e0e0e0"></path><path d="M482.83,315.37a12.15,12.15,0,0,1-5,0,12.15,12.15,0,0,1,5,0Z" style="fill:#e0e0e0"></path><path d="M492.85,315.37a12.2,12.2,0,0,1-5,0,12.2,12.2,0,0,1,5,0Z" style="fill:#e0e0e0"></path><path d="M502.86,315.37a12.2,12.2,0,0,1-5,0,12.2,12.2,0,0,1,5,0Z" style="fill:#e0e0e0"></path><path d="M512.87,315.37a12.15,12.15,0,0,1-5,0,12.15,12.15,0,0,1,5,0Z" style="fill:#e0e0e0"></path><path d="M522.89,315.37a12.2,12.2,0,0,1-5,0,12.2,12.2,0,0,1,5,0Z" style="fill:#e0e0e0"></path><path d="M532.9,315.37a12.2,12.2,0,0,1-5,0,12.2,12.2,0,0,1,5,0Z" style="fill:#e0e0e0"></path><path d="M542.91,315.37a12.15,12.15,0,0,1-5,0,12.15,12.15,0,0,1,5,0Z" style="fill:#e0e0e0"></path><path d="M552.93,315.37a12.2,12.2,0,0,1-5,0,12.2,12.2,0,0,1,5,0Z" style="fill:#e0e0e0"></path><path d="M562.48,316.87c-.11.11-.85-.78-2.12-1.11a8.64,8.64,0,0,0-1.69-.2c-.45-.05-.74-.12-.74-.19s.29-.14.74-.18a4.66,4.66,0,0,1,1.83.07,3.4,3.4,0,0,1,1.6.94C562.43,316.55,562.53,316.84,562.48,316.87Z" style="fill:#e0e0e0"></path><path d="M563.32,326.7a12.15,12.15,0,0,1,0-5,12.15,12.15,0,0,1,0,5Z" style="fill:#e0e0e0"></path><path d="M563.32,336.72a12.2,12.2,0,0,1,0-5,12.2,12.2,0,0,1,0,5Z" style="fill:#e0e0e0"></path><path d="M563.32,346.73a12.2,12.2,0,0,1,0-5,12.2,12.2,0,0,1,0,5Z" style="fill:#e0e0e0"></path><path d="M563.32,356.74a12.15,12.15,0,0,1,0-5,12.15,12.15,0,0,1,0,5Z" style="fill:#e0e0e0"></path><path d="M563.32,366.76a12.2,12.2,0,0,1,0-5,12.2,12.2,0,0,1,0,5Z" style="fill:#e0e0e0"></path><path d="M563.15,376.76c-.07,0,0-.31,0-.74s-.06-1.07-.05-1.75a6.14,6.14,0,0,1,.26-2.51,6.35,6.35,0,0,1,.26,2.51,11.71,11.71,0,0,1-.1,1.79C563.38,376.53,563.21,376.78,563.15,376.76Z" style="fill:#e0e0e0"></path><rect x="504.03" y="339.57" width="4.12" height="18.45" style="fill:#e0e0e0"></rect><rect x="504.03" y="339.57" width="4.12" height="18.45" transform="translate(157.3 854.89) rotate(-90)" style="fill:#e0e0e0"></rect><rect x="448.87" y="149" width="114.44" height="152.33" rx="3.92" style="fill:#fff"></rect><path d="M559.39,301.32a4.19,4.19,0,0,0,1.33-.26,3.85,3.85,0,0,0,2.46-2.87,21,21,0,0,0,.07-2.92c0-1.09,0-2.27,0-3.55,0-2.57,0-5.53,0-8.86,0-13.34,0-32.62-.08-56.45,0-11.92,0-25,0-39q0-10.52,0-21.72,0-5.6,0-11.36v-1.44a3.82,3.82,0,0,0-.25-1.33,3.73,3.73,0,0,0-1.81-2,3.47,3.47,0,0,0-1.31-.37c-.44,0-1,0-1.44,0h-2.95l-102.51,0a3.68,3.68,0,0,0-2.8,1.28,3.53,3.53,0,0,0-.74,1.39,5.69,5.69,0,0,0-.14,1.62v46.29c0,17.15,0,33.69,0,49.45s0,30.73,0,44.74v2.62a4.71,4.71,0,0,0,.41,2.43,3.69,3.69,0,0,0,1.71,1.67,4.77,4.77,0,0,0,2.39.36h10l18.71,0,56.45.08,15.34,0,4,0,1.36,0-1.36,0-4,0-15.34.05-56.45.08H453.59a11.27,11.27,0,0,1-1.29,0,3.9,3.9,0,0,1-1.29-.37,4.12,4.12,0,0,1-1.9-1.86,5,5,0,0,1-.45-2.62c0-.87,0-1.74,0-2.62,0-14,0-29,0-44.74s0-32.3,0-49.45q0-12.87,0-26.16V153.55a6,6,0,0,1,.16-1.76,4,4,0,0,1,.84-1.58,4.22,4.22,0,0,1,3.2-1.48l102.51,0h2.95c.5,0,1,0,1.48,0a4.09,4.09,0,0,1,1.49.41,4.23,4.23,0,0,1,2,2.22,4.29,4.29,0,0,1,.28,1.5v1.44q0,5.76,0,11.36,0,11.19,0,21.72c0,14,0,27.06,0,39,0,23.83-.06,43.11-.08,56.45,0,3.33,0,6.29,0,8.86,0,1.28,0,2.46,0,3.55a21.07,21.07,0,0,1-.1,2.94,4,4,0,0,1-2.54,2.9,4,4,0,0,1-1,.21Z" style="fill:#263238"></path><path d="M520.46,169.28h-56a3.2,3.2,0,0,1-3.2-3.2h0a3.19,3.19,0,0,1,3.2-3.19h56a3.19,3.19,0,0,1,3.2,3.19h0A3.2,3.2,0,0,1,520.46,169.28Z" style="fill:#000000"></path><path d="M520.46,169.31h-56a3.23,3.23,0,0,1,0-6.45h56a3.23,3.23,0,1,1,0,6.45Zm-56-6.4a3.18,3.18,0,0,0,0,6.35h56a3.18,3.18,0,1,0,0-6.35Z" style="fill:#fff"></path><path d="M506.13,273.61H464.44a3.2,3.2,0,0,1-3.2-3.2h0a3.2,3.2,0,0,1,3.2-3.2h41.69a3.19,3.19,0,0,1,3.19,3.2h0A3.2,3.2,0,0,1,506.13,273.61Z" style="fill:#e0e0e0"></path><path d="M506.13,273.63H464.44a3.23,3.23,0,0,1,0-6.45h41.69a3.23,3.23,0,0,1,0,6.45Zm-41.69-6.39a3.17,3.17,0,0,0,0,6.34h41.69a3.17,3.17,0,0,0,0-6.34Z" style="fill:#fff"></path><path d="M552.75,161.9a1.64,1.64,0,1,1-1.64-1.64A1.64,1.64,0,0,1,552.75,161.9Z" style="fill:#263238"></path><path d="M551.11,163.56a1.67,1.67,0,1,1,1.67-1.66A1.66,1.66,0,0,1,551.11,163.56Zm0-3.28a1.62,1.62,0,1,0,1.62,1.62A1.62,1.62,0,0,0,551.11,160.28Z" style="fill:#fff"></path><circle cx="551.11" cy="166.08" r="1.64" style="fill:#263238"></circle><path d="M551.11,167.75a1.67,1.67,0,1,1,1.67-1.67A1.67,1.67,0,0,1,551.11,167.75Zm0-3.28a1.62,1.62,0,0,0,0,3.23,1.62,1.62,0,1,0,0-3.23Z" style="fill:#fff"></path><path d="M552.75,170.27a1.64,1.64,0,1,1-1.64-1.64A1.63,1.63,0,0,1,552.75,170.27Z" style="fill:#263238"></path><path d="M551.11,171.94a1.67,1.67,0,1,1,1.67-1.67A1.67,1.67,0,0,1,551.11,171.94Zm0-3.29a1.62,1.62,0,1,0,1.62,1.62A1.62,1.62,0,0,0,551.11,168.65Z" style="fill:#fff"></path><path d="M470.62,287.05a4.69,4.69,0,1,1-4.69-4.69A4.69,4.69,0,0,1,470.62,287.05Z" style="fill:#000000"></path><path d="M465.93,291.76a4.72,4.72,0,1,1,4.72-4.71A4.71,4.71,0,0,1,465.93,291.76Zm0-9.38a4.67,4.67,0,1,0,4.67,4.67A4.67,4.67,0,0,0,465.93,282.38Z" style="fill:#fff"></path><path d="M482.61,287.05a4.69,4.69,0,1,1-4.69-4.69A4.69,4.69,0,0,1,482.61,287.05Z" style="fill:#263238"></path><path d="M477.92,291.76a4.72,4.72,0,1,1,4.72-4.71A4.72,4.72,0,0,1,477.92,291.76Zm0-9.38a4.67,4.67,0,1,0,4.67,4.67A4.67,4.67,0,0,0,477.92,282.38Z" style="fill:#fff"></path><path d="M494.6,287.05a4.69,4.69,0,1,1-4.69-4.69A4.69,4.69,0,0,1,494.6,287.05Z" style="fill:#455a64"></path><path d="M489.91,291.76a4.72,4.72,0,1,1,4.71-4.71A4.72,4.72,0,0,1,489.91,291.76Zm0-9.38a4.67,4.67,0,1,0,4.66,4.67A4.68,4.68,0,0,0,489.91,282.38Z" style="fill:#fff"></path><rect x="460.34" y="178.68" width="89.13" height="81.77" rx="3.99" style="fill:#fff"></rect><path d="M460.34,237.25v15.27c0,4.38,2.43,7.92,7.2,7.92h74.73c4.86,0,7.2-3.61,7.2-8.06V227.82L528.68,210.1a6.08,6.08,0,0,0-8.2.39l-16.27,17.1-16-7a8.67,8.67,0,0,0-8.8,1.15Z" style="fill:#000000"></path><path d="M542.27,260.47H467.54a6.81,6.81,0,0,1-5.41-2.33,8.6,8.6,0,0,1-1.82-5.62V237.24h0l19.05-15.46a8.68,8.68,0,0,1,8.83-1.15l16,6.94,16.25-17.09a5.94,5.94,0,0,1,4-1.8h.31a6,6,0,0,1,3.9,1.41l20.8,17.73v24.57a8.91,8.91,0,0,1-1.79,5.72A6.75,6.75,0,0,1,542.27,260.47Zm-81.91-23.21v15.26a8.57,8.57,0,0,0,1.81,5.59,6.76,6.76,0,0,0,5.37,2.31h74.73a6.7,6.7,0,0,0,5.4-2.35,8.87,8.87,0,0,0,1.77-5.69V227.83l-20.77-17.71a5.94,5.94,0,0,0-3.87-1.4h-.31a5.86,5.86,0,0,0-4,1.79l-16.28,17.11h0l-16-6.94a8.59,8.59,0,0,0-8.77,1.14Z" style="fill:#fff"></path><path d="M509.53,200.34a7.19,7.19,0,1,1-7.19-7.38A7.28,7.28,0,0,1,509.53,200.34Z" style="fill:#000000"></path><path d="M502.34,207.75a7.41,7.41,0,1,1,7.22-7.41A7.32,7.32,0,0,1,502.34,207.75Zm0-14.77a7.36,7.36,0,1,0,7.17,7.36A7.27,7.27,0,0,0,502.34,193Z" style="fill:#fff"></path><path d="M541.17,260.44a9,9,0,0,0,3.22-.7,8.53,8.53,0,0,0,3.15-2.4,8.24,8.24,0,0,0,1.82-5c0-8.3,0-20.29-.07-35.1,0-7.41,0-15.52,0-24.23,0-2.17,0-4.41,0-6.63a8,8,0,0,0-6.1-7.19,13.33,13.33,0,0,0-3.48-.25h-7.25l-63.74,0a8.23,8.23,0,0,0-3.92,1,8.11,8.11,0,0,0-2.91,2.79,7.81,7.81,0,0,0-1.2,3.81c-.05,1.36,0,2.76,0,4.13,0,5.5,0,10.93,0,16.26,0,10.66,0,20.95,0,30.75,0,4.89,0,9.67,0,14.31a8.08,8.08,0,0,0,2.5,6,8.2,8.2,0,0,0,5.89,2.24l24.24,0,35.1.08,9.54.05,2.48,0,.85,0-.85,0-2.48,0-9.54.05-35.1.08-24.24,0a8.64,8.64,0,0,1-6.2-2.35,8.5,8.5,0,0,1-2.65-6.31c0-4.64,0-9.42,0-14.31,0-9.8,0-20.09,0-30.75V190.68c0-1.38,0-2.75,0-4.16a8.3,8.3,0,0,1,1.28-4.06,8.6,8.6,0,0,1,3.09-3,8.7,8.7,0,0,1,4.18-1.08l63.74,0h7.25a14,14,0,0,1,3.59.27,8.5,8.5,0,0,1,6.43,7.61c.06,2.28,0,4.47,0,6.66,0,8.71,0,16.82,0,24.23,0,14.81-.06,26.8-.09,35.1a8.43,8.43,0,0,1-1.9,5.13,8.58,8.58,0,0,1-3.23,2.4,9.15,9.15,0,0,1-2.42.59C541.45,260.45,541.17,260.44,541.17,260.44Z" style="fill:#263238"></path><path d="M180.19,78.76a4.38,4.38,0,1,1-4.37-4.3A4.34,4.34,0,0,1,180.19,78.76Z" style="fill:#fff"></path><path d="M193.62,78.76a4.38,4.38,0,1,1-4.37-4.3A4.34,4.34,0,0,1,193.62,78.76Z" style="fill:#fff"></path><path d="M207.05,78.76a4.38,4.38,0,1,1-4.37-4.3A4.34,4.34,0,0,1,207.05,78.76Z" style="fill:#fff"></path></g><g id="freepik--tab-2--inject-19"><rect x="458.48" y="359.31" width="148.89" height="114.44" rx="3.92" style="fill:#fff"></rect><path d="M607.37,363.23a4.93,4.93,0,0,0-.26-1.3,3.9,3.9,0,0,0-2.81-2.47,17.67,17.67,0,0,0-2.88-.08h-3.5l-8.74,0-55.72.09-38.47,0H462.35a3.7,3.7,0,0,0-3.61,3.32c0,1.88,0,3.84,0,5.78,0,31.1,0,65.29,0,101.17a3.65,3.65,0,0,0,1.26,2.77,3.44,3.44,0,0,0,1.36.75,5.12,5.12,0,0,0,1.58.16h45.69l48.81,0,44.16,0a21,21,0,0,0,2.53-.06,3.75,3.75,0,0,0,2.07-1.17,3.66,3.66,0,0,0,.94-2.16c0-.81,0-1.67,0-2.5,0-3.33,0-6.61,0-9.82q0-9.63,0-18.46c0-23.52.07-42.55.09-55.71,0-6.57,0-11.67.05-15.15,0-1.72,0-3,0-3.93s0-1.35,0-1.35,0,.46,0,1.35,0,2.21,0,3.93c0,3.48,0,8.58.05,15.15,0,13.16,0,32.19.08,55.71q0,8.82,0,18.46c0,3.21,0,6.49,0,9.82,0,.84,0,1.66,0,2.53a4.15,4.15,0,0,1-3.35,3.72,19.13,19.13,0,0,1-2.61.07l-44.16,0h-94.5a5.8,5.8,0,0,1-1.73-.18,4.06,4.06,0,0,1-1.55-.85,4.24,4.24,0,0,1-1.44-3.17c0-35.88,0-70.07,0-101.17,0-2,0-3.86,0-5.82a4.11,4.11,0,0,1,1.33-2.66,4.17,4.17,0,0,1,2.75-1.09h11.21l21.43,0,38.47,0,55.72.08,8.74,0,3.5,0a17.94,17.94,0,0,1,2.91.11,3.93,3.93,0,0,1,2.83,2.55,3.35,3.35,0,0,1,.2,1C607.37,363.12,607.37,363.23,607.37,363.23Z" style="fill:#263238"></path><path d="M475.33,402.16v56a3.21,3.21,0,0,1-3.2,3.2h0a3.2,3.2,0,0,1-3.2-3.2v-56a3.2,3.2,0,0,1,3.2-3.2h0A3.21,3.21,0,0,1,475.33,402.16Z" style="fill:#000000"></path><path d="M472.13,461.41a3.23,3.23,0,0,1-3.23-3.22v-56a3.23,3.23,0,0,1,6.45,0v56A3.22,3.22,0,0,1,472.13,461.41Zm0-62.42a3.17,3.17,0,0,0-3.17,3.17v56a3.17,3.17,0,0,0,6.34,0v-56A3.17,3.17,0,0,0,472.13,399Z" style="fill:#fff"></path><path d="M579.65,416.5v41.69a3.2,3.2,0,0,1-3.2,3.2h0a3.21,3.21,0,0,1-3.2-3.2V416.5a3.21,3.21,0,0,1,3.2-3.2h0A3.2,3.2,0,0,1,579.65,416.5Z" style="fill:#e0e0e0"></path><path d="M576.45,461.41a3.22,3.22,0,0,1-3.22-3.22V416.5a3.23,3.23,0,0,1,6.45,0v41.69A3.23,3.23,0,0,1,576.45,461.41Zm0-48.08a3.17,3.17,0,0,0-3.17,3.17v41.69a3.18,3.18,0,0,0,6.35,0V416.5A3.18,3.18,0,0,0,576.45,413.33Z" style="fill:#fff"></path><circle cx="467.94" cy="371.51" r="1.64" style="fill:#263238"></circle><path d="M467.94,373.18a1.67,1.67,0,1,1,1.67-1.67A1.66,1.66,0,0,1,467.94,373.18Zm0-3.28a1.62,1.62,0,1,0,1.62,1.61A1.61,1.61,0,0,0,467.94,369.9Z" style="fill:#fff"></path><path d="M472.13,369.87a1.65,1.65,0,1,1-1.64,1.64A1.64,1.64,0,0,1,472.13,369.87Z" style="fill:#263238"></path><path d="M472.13,373.18a1.67,1.67,0,1,1,1.67-1.67A1.67,1.67,0,0,1,472.13,373.18Zm0-3.28a1.62,1.62,0,1,0,1.61,1.61A1.62,1.62,0,0,0,472.13,369.9Z" style="fill:#fff"></path><circle cx="476.31" cy="371.51" r="1.64" style="fill:#263238"></circle><path d="M476.31,373.18a1.67,1.67,0,1,1,1.67-1.67A1.66,1.66,0,0,1,476.31,373.18Zm0-3.28a1.62,1.62,0,1,0,1.62,1.61A1.61,1.61,0,0,0,476.31,369.9Z" style="fill:#fff"></path><path d="M593.09,452a4.69,4.69,0,1,1-4.69,4.69A4.69,4.69,0,0,1,593.09,452Z" style="fill:#000000"></path><path d="M593.09,461.41a4.72,4.72,0,1,1,4.72-4.71A4.71,4.71,0,0,1,593.09,461.41Zm0-9.38a4.67,4.67,0,1,0,4.67,4.67A4.67,4.67,0,0,0,593.09,452Z" style="fill:#fff"></path><path d="M593.09,440a4.69,4.69,0,1,1-4.69,4.69A4.69,4.69,0,0,1,593.09,440Z" style="fill:#263238"></path><path d="M593.09,449.42a4.72,4.72,0,1,1,4.72-4.71A4.71,4.71,0,0,1,593.09,449.42Zm0-9.38a4.67,4.67,0,1,0,4.67,4.67A4.67,4.67,0,0,0,593.09,440Z" style="fill:#fff"></path><path d="M593.09,428a4.69,4.69,0,1,1-4.69,4.69A4.69,4.69,0,0,1,593.09,428Z" style="fill:#455a64"></path><path d="M593.09,437.43a4.72,4.72,0,1,1,4.72-4.71A4.71,4.71,0,0,1,593.09,437.43Zm0-9.38a4.67,4.67,0,1,0,4.67,4.67A4.67,4.67,0,0,0,593.09,428.05Z" style="fill:#fff"></path><rect x="481.04" y="376.84" width="89.13" height="81.77" rx="3.99" transform="translate(107.88 943.33) rotate(-90)" style="fill:#fff"></rect><path d="M543.3,462.29h15.27c4.37,0,7.92-2.43,7.92-7.2V380.36c0-4.86-3.61-7.2-8.07-7.2H533.87l-17.73,20.78a6.09,6.09,0,0,0,.39,8.21l17.11,16.26-6.95,16a8.62,8.62,0,0,0,1.15,8.8Z" style="fill:#455a64"></path><path d="M506.39,413.1a7.19,7.19,0,1,1-7.39,7.19A7.29,7.29,0,0,1,506.39,413.1Z" style="fill:#455a64"></path><path d="M566.49,381.46a9.31,9.31,0,0,0-.7-3.22,8.56,8.56,0,0,0-2.41-3.15,8.22,8.22,0,0,0-5-1.82l-35.09.07-24.24,0c-2.17,0-4.41,0-6.62,0a8.07,8.07,0,0,0-5.72,3.06,8.28,8.28,0,0,0-1.48,3A13.3,13.3,0,0,0,485,383v7.25c0,19.59,0,41.13,0,63.74a8.24,8.24,0,0,0,1,3.92,8.08,8.08,0,0,0,2.78,2.91,7.88,7.88,0,0,0,3.81,1.2c1.36,0,2.76,0,4.13,0h61.33a8,8,0,0,0,6-2.5,8.21,8.21,0,0,0,2.24-5.9c0-8.71,0-16.82,0-24.23,0-14.81.06-26.8.08-35.1,0-4.13,0-7.35.05-9.54,0-1.08,0-1.91,0-2.48s0-.85,0-.85,0,.29,0,.85,0,1.4,0,2.48c0,2.19,0,5.41.05,9.54,0,8.3,0,20.29.08,35.1,0,7.41,0,15.52,0,24.23a8.66,8.66,0,0,1-2.36,6.2,8.49,8.49,0,0,1-6.3,2.66H543.73l-30.74,0H496.72c-1.38,0-2.74,0-4.15,0a8.27,8.27,0,0,1-4.06-1.28,8.39,8.39,0,0,1-3-3.1,8.67,8.67,0,0,1-1.09-4.17c0-22.61,0-44.15,0-63.74q0-3.67,0-7.25a13.59,13.59,0,0,1,.26-3.59,8.54,8.54,0,0,1,7.61-6.43c2.29-.07,4.48,0,6.66,0l24.24,0,35.1.09a8.34,8.34,0,0,1,5.12,1.91,8.58,8.58,0,0,1,2.4,3.23,8.44,8.44,0,0,1,.59,2.41C566.49,381.18,566.49,381.46,566.49,381.46Z" style="fill:#263238"></path></g><g id="freepik--tab-1--inject-19"><rect x="71.81" y="44.5" width="67.44" height="57.95" rx="3.92" style="fill:#fff"></rect><path d="M135.33,102.44s.22,0,.63-.08a3.89,3.89,0,0,0,3.16-3.18,14.52,14.52,0,0,0,0-1.9c0-.69,0-1.42,0-2.19,0-6.19,0-15.12-.08-26.15,0-5.52,0-11.57,0-18.06-.08-1.61.31-3.37-.73-4.65a3.67,3.67,0,0,0-1.92-1.35,9.2,9.2,0,0,0-2.49-.15H123.23l-47.49,0a3.63,3.63,0,0,0-2.63,1.11,3.72,3.72,0,0,0-1,2.66V66.85c0,7.94,0,15.61,0,22.91v8a4.56,4.56,0,0,0,.42,2.43,3.67,3.67,0,0,0,1.73,1.64,3.78,3.78,0,0,0,1.15.32c.39,0,.82,0,1.24,0h5l18.06,0,26.15.08,7.11,0,1.84,0,.63,0-.63,0-1.84,0-7.11,0-26.15.09-18.06,0h-5c-.42,0-.83,0-1.29,0a3.93,3.93,0,0,1-1.29-.35,4.17,4.17,0,0,1-2-1.83,5.11,5.11,0,0,1-.48-2.65v-8c0-7.3,0-15,0-22.91V54.73q0-3.07,0-6.2a4.28,4.28,0,0,1,1.18-3,4.16,4.16,0,0,1,3-1.27l47.49,0h12a4.35,4.35,0,0,1,1.33.18A4.09,4.09,0,0,1,138.67,46a4.21,4.21,0,0,1,.81,2.46c0,.82,0,1.64,0,2.45,0,6.49,0,12.54,0,18.06,0,11-.06,20-.08,26.15,0,.77,0,1.5,0,2.19a13.21,13.21,0,0,1-.08,1.92,3.86,3.86,0,0,1-1.59,2.52,3.76,3.76,0,0,1-1.71.69A2.58,2.58,0,0,1,135.33,102.44Z" style="fill:#263238"></path><path d="M113.55,62.62H85.71a3.21,3.21,0,0,1-3.2-3.2h0a3.2,3.2,0,0,1,3.2-3.2h27.84a3.2,3.2,0,0,1,3.2,3.2h0A3.2,3.2,0,0,1,113.55,62.62Z" style="fill:#000000"></path><path d="M113.55,62.64H85.71a3.23,3.23,0,0,1,0-6.45h27.84a3.23,3.23,0,1,1,0,6.45Zm-27.84-6.4a3.18,3.18,0,0,0,0,6.35h27.84a3.18,3.18,0,1,0,0-6.35Z" style="fill:#fff"></path><path d="M129.16,77.66H85.71a3.2,3.2,0,0,1-3.2-3.2h0a3.2,3.2,0,0,1,3.2-3.2h43.45a3.2,3.2,0,0,1,3.2,3.2h0A3.2,3.2,0,0,1,129.16,77.66Z" style="fill:#263238"></path><path d="M129.16,77.68H85.71a3.22,3.22,0,1,1,0-6.44h43.45a3.22,3.22,0,1,1,0,6.44Zm-43.45-6.4a3.18,3.18,0,0,0,0,6.35h43.45a3.18,3.18,0,0,0,0-6.35Z" style="fill:#fff"></path><path d="M132.52,53.53a1.64,1.64,0,1,1-1.64-1.64A1.63,1.63,0,0,1,132.52,53.53Z" style="fill:#263238"></path><path d="M130.88,55.2a1.67,1.67,0,1,1,1.67-1.67A1.67,1.67,0,0,1,130.88,55.2Zm0-3.29a1.62,1.62,0,1,0,1.62,1.62A1.63,1.63,0,0,0,130.88,51.91Z" style="fill:#fff"></path><circle cx="130.88" cy="57.72" r="1.64" style="fill:#263238"></circle><path d="M130.88,59.38a1.67,1.67,0,1,1,1.67-1.66A1.67,1.67,0,0,1,130.88,59.38Zm0-3.28a1.62,1.62,0,1,0,1.62,1.62A1.62,1.62,0,0,0,130.88,56.1Z" style="fill:#fff"></path><path d="M132.52,61.9a1.64,1.64,0,1,1-1.64-1.64A1.63,1.63,0,0,1,132.52,61.9Z" style="fill:#263238"></path><path d="M130.88,63.57a1.67,1.67,0,1,1,1.67-1.67A1.67,1.67,0,0,1,130.88,63.57Zm0-3.29a1.62,1.62,0,1,0,1.62,1.62A1.63,1.63,0,0,0,130.88,60.28Z" style="fill:#fff"></path><circle cx="87.2" cy="89.46" r="4.69" style="fill:#000000"></circle><path d="M87.2,94.18a4.72,4.72,0,1,1,4.72-4.72A4.72,4.72,0,0,1,87.2,94.18Zm0-9.38a4.67,4.67,0,1,0,4.67,4.66A4.66,4.66,0,0,0,87.2,84.8Z" style="fill:#fff"></path><circle cx="99.19" cy="89.46" r="4.69" style="fill:#455a64"></circle><path d="M99.19,94.18a4.72,4.72,0,1,1,4.72-4.72A4.72,4.72,0,0,1,99.19,94.18Zm0-9.38a4.67,4.67,0,1,0,4.67,4.66A4.66,4.66,0,0,0,99.19,84.8Z" style="fill:#fff"></path></g><g id="freepik--character-2--inject-19"><rect x="579.55" y="189.19" width="114.44" height="80.51" rx="3.92" style="fill:#fff"></rect><path d="M690.07,269.7a9.52,9.52,0,0,0,1-.16,3.89,3.89,0,0,0,2.27-1.65,3.78,3.78,0,0,0,.61-2c0-.79,0-1.65,0-2.58q0-2.81,0-6.44c0-9.71,0-23.73-.08-41.06q0-6.51,0-13.61,0-3.54,0-7.23v-1.86a3.7,3.7,0,0,0-3.23-3.68c-10.13-.06-21.06,0-32.51,0l-74.56,0A3.69,3.69,0,0,0,580,192a4,4,0,0,0-.17,1.13v13.42q0,9.66,0,19c0,12.47,0,24.5,0,36v4.27a3.7,3.7,0,0,0,2,3.23,3.85,3.85,0,0,0,1.9.43h22l28.35,0,41.06.08,11.16.05,2.9,0,1,0-1,0-2.9,0L675,269.8l-41.06.08-28.35,0h-22a4.33,4.33,0,0,1-2.13-.49,4.19,4.19,0,0,1-2.2-3.64v-4.27c0-11.47,0-23.5,0-36V193.12a4.39,4.39,0,0,1,.2-1.29,4.2,4.2,0,0,1,4-2.9L658,189c11.47,0,22.33,0,32.57.06a4.13,4.13,0,0,1,3.59,4.11V195q0,3.69,0,7.23,0,7.09,0,13.61c0,17.33-.07,31.35-.09,41.06,0,2.42,0,4.57,0,6.44,0,.93,0,1.79,0,2.58a3.93,3.93,0,0,1-3,3.69A3.24,3.24,0,0,1,690.07,269.7Z" style="fill:#263238"></path><path d="M651.14,209.48h-56a3.2,3.2,0,0,1-3.2-3.2h0a3.2,3.2,0,0,1,3.2-3.2h56a3.2,3.2,0,0,1,3.2,3.2h0A3.2,3.2,0,0,1,651.14,209.48Z" style="fill:#455a64"></path><path d="M651.14,209.5h-56a3.22,3.22,0,1,1,0-6.44h56a3.22,3.22,0,1,1,0,6.44Zm-56-6.4a3.18,3.18,0,1,0,0,6.35h56a3.18,3.18,0,0,0,0-6.35Z" style="fill:#fff"></path><path d="M678.59,230.32H595.12a3.2,3.2,0,0,1-3.2-3.2h0a3.2,3.2,0,0,1,3.2-3.2h83.47a3.2,3.2,0,0,1,3.2,3.2h0A3.2,3.2,0,0,1,678.59,230.32Z" style="fill:#e0e0e0"></path><path d="M678.59,230.35H595.12a3.23,3.23,0,1,1,0-6.45h83.47a3.23,3.23,0,1,1,0,6.45ZM595.12,224a3.18,3.18,0,1,0,0,6.35h83.47a3.18,3.18,0,0,0,0-6.35Z" style="fill:#fff"></path><path d="M636.8,242H595.12a3.19,3.19,0,0,1-3.2-3.19h0a3.2,3.2,0,0,1,3.2-3.2H636.8a3.2,3.2,0,0,1,3.2,3.2h0A3.19,3.19,0,0,1,636.8,242Z" style="fill:#e0e0e0"></path><path d="M636.8,242H595.12a3.23,3.23,0,1,1,0-6.45H636.8a3.23,3.23,0,1,1,0,6.45Zm-41.68-6.4a3.18,3.18,0,1,0,0,6.35H636.8a3.18,3.18,0,1,0,0-6.35Z" style="fill:#fff"></path><path d="M683.43,202.09a1.64,1.64,0,1,1-1.64-1.64A1.63,1.63,0,0,1,683.43,202.09Z" style="fill:#263238"></path><path d="M681.79,203.76a1.67,1.67,0,1,1,1.67-1.67A1.67,1.67,0,0,1,681.79,203.76Zm0-3.28a1.62,1.62,0,1,0,1.62,1.61A1.62,1.62,0,0,0,681.79,200.48Z" style="fill:#fff"></path><circle cx="681.79" cy="206.28" r="1.64" style="fill:#263238"></circle><path d="M681.79,208a1.67,1.67,0,1,1,1.67-1.67A1.67,1.67,0,0,1,681.79,208Zm0-3.29a1.62,1.62,0,1,0,1.62,1.62A1.63,1.63,0,0,0,681.79,204.66Z" style="fill:#fff"></path><path d="M683.43,210.46a1.64,1.64,0,1,1-1.64-1.64A1.64,1.64,0,0,1,683.43,210.46Z" style="fill:#263238"></path><path d="M681.79,212.13a1.67,1.67,0,1,1,1.67-1.67A1.67,1.67,0,0,1,681.79,212.13Zm0-3.28a1.62,1.62,0,1,0,1.62,1.61A1.62,1.62,0,0,0,681.79,208.85Z" style="fill:#fff"></path><circle cx="596.61" cy="255.44" r="4.69" style="fill:#000000"></circle><path d="M596.61,260.16a4.72,4.72,0,1,1,4.71-4.72A4.73,4.73,0,0,1,596.61,260.16Zm0-9.38a4.67,4.67,0,1,0,4.66,4.66A4.67,4.67,0,0,0,596.61,250.78Z" style="fill:#fff"></path><path d="M613.29,255.44a4.69,4.69,0,1,1-4.69-4.69A4.69,4.69,0,0,1,613.29,255.44Z" style="fill:#263238"></path><path d="M608.6,260.16a4.72,4.72,0,1,1,4.71-4.72A4.73,4.73,0,0,1,608.6,260.16Zm0-9.38a4.67,4.67,0,1,0,4.66,4.66A4.67,4.67,0,0,0,608.6,250.78Z" style="fill:#fff"></path><circle cx="620.59" cy="255.44" r="4.69" style="fill:#455a64"></circle><path d="M620.59,260.16a4.72,4.72,0,1,1,4.71-4.72A4.72,4.72,0,0,1,620.59,260.16Zm0-9.38a4.67,4.67,0,1,0,4.66,4.66A4.67,4.67,0,0,0,620.59,250.78Z" style="fill:#fff"></path><path d="M581.83,219.13a8.47,8.47,0,0,1,1.7.69,8.43,8.43,0,0,0-1.39-3.25,9.61,9.61,0,0,1-1.19-2.69c-.14-1.82,1.26-3.17,2.43-1.1a15.53,15.53,0,0,0,2.27,2.78c2.57,2.51,10.86,11.53,10.86,11.53l-6.4,8.35s-7.67-.44-12.2-1.82c-3.4-1-4.73-2.32-4.76-3.11s1.33-1.27,1.33-1.27a3.83,3.83,0,0,1-.69-2.28c.16-1.05,1.62-1.57,1.62-1.57a5.41,5.41,0,0,1-.52-2c0-1.09,1.34-2.39,1.34-2.39s-2.27-.84-1-2.81c.36-.55,1.42-.83,3.38-.21C579.81,218.32,581.83,219.13,581.83,219.13Z" style="fill:#ffbf9d"></path><path d="M688.44,144a24.74,24.74,0,0,0-18.22-11.19c-4.32-.45-6.19.29-9.38.85a13.72,13.72,0,0,0-8.25,4.46c-2.49,2.94-4.66,6.28-5.42,10.06a33,33,0,0,0-.35,11,43.4,43.4,0,0,0,4.7,13.4l6.57,1.4c5.5.68,11.08,1.36,16.57.58s11-3.2,14.28-7.66C693.52,160.67,692.77,150.37,688.44,144Z" style="fill:#263238"></path><path d="M679.55,143.14l-12.86-6.48-3.51.09c-7.84-.67-14,7.49-14.63,13.83-.68,7-1.24,15.67-.58,21,1.32,10.65,10.15,12.31,10.15,12.31s-.67,5.55-1,9.05l20.53.35L682.75,147A3.72,3.72,0,0,0,679.55,143.14Z" style="fill:#ffbf9d"></path><path d="M663.85,170.49a2.23,2.23,0,0,0-.64-1.44,2.29,2.29,0,0,0-2.75-.4,3.06,3.06,0,0,0-1.41,2.75h0a2.77,2.77,0,0,0,1.88,1.33,2.33,2.33,0,0,0,.37,0,2.48,2.48,0,0,0,1.73-.51A2.22,2.22,0,0,0,663.85,170.49Z" style="fill:#ff9a6c"></path><path d="M650.59,160.09a1.35,1.35,0,0,0,1.27,1.41,1.3,1.3,0,0,0,1.44-1.17,1.37,1.37,0,0,0-1.26-1.42A1.31,1.31,0,0,0,650.59,160.09Z" style="fill:#263238"></path><path d="M650.63,154.31c.16.19,1.21-.54,2.68-.49s2.5.82,2.67.65-.08-.4-.54-.76a3.78,3.78,0,0,0-2.13-.74,3.61,3.61,0,0,0-2.14.62C650.71,153.92,650.55,154.23,650.63,154.31Z" style="fill:#263238"></path><path d="M659,166.55a10,10,0,0,0-2.36-.51c-.37,0-.73-.13-.78-.39a1.88,1.88,0,0,1,.29-1.1l1.2-2.8c1.67-4,2.89-7.29,2.73-7.35s-1.65,3.12-3.32,7.11c-.4,1-.79,1.92-1.15,2.82a2.15,2.15,0,0,0-.25,1.46,1,1,0,0,0,.6.57,2.79,2.79,0,0,0,.63.11A9.54,9.54,0,0,0,659,166.55Z" style="fill:#263238"></path><path d="M658.11,183.84a27,27,0,0,0,14.31-3.3s-4,7.21-14.59,5.86Z" style="fill:#ff9a6c"></path><path d="M650.62,149.84c.23.36,1.36.16,2.67.32s2.37.53,2.67.22c.13-.15,0-.51-.44-.88a4.17,4.17,0,0,0-4.3-.44C650.72,149.34,650.52,149.66,650.62,149.84Z" style="fill:#263238"></path><path d="M665.6,161.18a1.37,1.37,0,0,1-1.41,1.28,1.31,1.31,0,0,1-1.31-1.32,1.37,1.37,0,0,1,1.4-1.28A1.31,1.31,0,0,1,665.6,161.18Z" style="fill:#263238"></path><path d="M670.36,155.5c-.18.17-1.15-.66-2.61-.77s-2.58.56-2.73.37.12-.39.61-.7a3.78,3.78,0,0,1,2.2-.51,3.57,3.57,0,0,1,2.06.83C670.32,155.1,670.45,155.43,670.36,155.5Z" style="fill:#263238"></path><path d="M668.43,150.35c-.3.32-1.41-.09-2.76-.18s-2.52.09-2.76-.27c-.11-.18.09-.5.61-.79a4.29,4.29,0,0,1,2.28-.42,4.1,4.1,0,0,1,2.17.79C668.43,149.85,668.57,150.2,668.43,150.35Z" style="fill:#263238"></path><path d="M679.36,164.58c0-.79,1-2.62,1.79-2.71,2.09-.26,5.83,0,5.69,5.32-.2,7.22-7.41,5.54-7.42,5.33S679.26,167.3,679.36,164.58Z" style="fill:#ffbf9d"></path><path d="M681.49,169.93s.12.1.33.2a1.22,1.22,0,0,0,.94,0,3.1,3.1,0,0,0,1.52-2.75,4.06,4.06,0,0,0-.3-1.81,1.48,1.48,0,0,0-.92-1,.65.65,0,0,0-.76.32c-.1.2-.06.35-.09.36s-.16-.13-.09-.42a.76.76,0,0,1,.3-.45,1,1,0,0,1,.7-.16,1.77,1.77,0,0,1,1.28,1.15,4.31,4.31,0,0,1,.38,2c-.08,1.45-.87,2.79-1.92,3.07a1.32,1.32,0,0,1-1.14-.23C681.5,170.11,681.46,170,681.49,169.93Z" style="fill:#ff9a6c"></path><path d="M681.44,161.91l-2,1.74c-11.5-7.57-23.19-28.15-20.17-27.31a23,23,0,0,1,11.37-.22c5.77,1.52,16.62,5.45,15.84,12.34S681.44,161.91,681.44,161.91Z" style="fill:#263238"></path><path d="M684.82,133c-2.8,1.64-5.29,6.41-4.15,9.44a9.51,9.51,0,0,0,12.15,10.63,9.13,9.13,0,0,0,5.16-4,11,11,0,0,0,1.12-7.64,12.15,12.15,0,0,0-5.06-8A9,9,0,0,0,684.82,133Z" style="fill:#263238"></path><path d="M685.45,161.93a6.83,6.83,0,0,1-1.31-.57c-.83-.4-2-1-3.45-1.83a52.75,52.75,0,0,1-10.36-7.66,34.88,34.88,0,0,1-7.49-10.46,26.62,26.62,0,0,1-1.34-3.68,6.25,6.25,0,0,1-.29-1.41c.1,0,.55,2,2,4.92a37,37,0,0,0,7.53,10.24,58.39,58.39,0,0,0,10.17,7.72c1.4.85,2.55,1.52,3.35,2A7.48,7.48,0,0,1,685.45,161.93Z" style="fill:#455a64"></path><path d="M691.75,156.51c-.09,0-.14-1.34-.54-3.47a28.18,28.18,0,0,0-2.82-7.89,27.76,27.76,0,0,0-5.07-6.67c-1.56-1.5-2.66-2.27-2.61-2.35a3.29,3.29,0,0,1,.83.47,18.7,18.7,0,0,1,2,1.59,24.94,24.94,0,0,1,8,14.79,17,17,0,0,1,.22,2.58A3,3,0,0,1,691.75,156.51Z" style="fill:#455a64"></path><path d="M684.08,173.26a2.71,2.71,0,1,1-2.7-2.7A2.7,2.7,0,0,1,684.08,173.26Z" style="fill:#263238"></path><path d="M635.44,441.26l1.89,19.65s-21.42,8-21.66,12l40.51.11,0-3-1.7-10.11L652,440.27Z" style="fill:#263238"></path><path d="M656.18,473l0-3-38.85.74s-1.84.81-1.63,2.11Z" style="fill:#455a64"></path><path d="M636.66,460.71c0,.2,1,.29,2,.94,1.17.71,1.39,1.56,1.72,1.41s-.12-1.25-1.34-2S636.61,460.52,636.66,460.71Z" style="fill:#455a64"></path><path d="M632.31,462.51c0,.2.84.54,1.53,1.4s.76,1.76,1.09,1.75.33-1.16-.55-2.2S632.32,462.32,632.31,462.51Z" style="fill:#455a64"></path><path d="M629.86,467.72c.18,0,.46-1-.06-2.07s-1.47-1.55-1.56-1.38.55.85.92,1.68S629.66,467.7,629.86,467.72Z" style="fill:#455a64"></path><path d="M635.22,456c.09.18,1-.1,2.16,0s2,.43,2.14.26-.75-.9-2.1-1S635.12,455.82,635.22,456Z" style="fill:#263238"></path><path d="M685.22,441.82,687,461.14s-21.09,7.73-21.35,11.62l39.79.35V470.2l-1.61-9.94L701.44,441Z" style="fill:#263238"></path><path d="M705.39,473.11V470.2l-38.17.5s-1.82.78-1.62,2.06Z" style="fill:#455a64"></path><path d="M686.29,460.93c0,.2,1,.29,2,.93s1.49,1.48,1.67,1.4-.1-1.22-1.3-2S686.25,460.74,686.29,460.93Z" style="fill:#455a64"></path><path d="M682,462.68c0,.19.82.53,1.49,1.37s.86,1.74,1.06,1.73.33-1.13-.53-2.16S682,462.49,682,462.68Z" style="fill:#455a64"></path><path d="M679.57,467.78c.18,0,.46-.95-.05-2s-1.43-1.53-1.52-1.36.49.75.89,1.65S679.37,467.76,679.57,467.78Z" style="fill:#455a64"></path><path d="M684.91,456.27c.08.19,1-.08,2.12,0s2,.43,2.1.26-.73-.88-2.06-.95S684.81,456.12,684.91,456.27Z" style="fill:#263238"></path><path d="M634.57,270.33s-9.6,27.8-9.93,48.48,3.37,48.82,7.67,85.1,2.26,55.62,2.26,55.62h21.85a429.17,429.17,0,0,0,2-43.06c-.33-20.35-1.92-26.79,0-49.17s5.05-35.82,8.31-42.6c0,0,9-10.72,9.68-25.43a71.67,71.67,0,0,0-4.55-27.34Z" style="fill:#263238"></path><path d="M654,309.33c.37,1.12,4.87,44.15,11.62,63.67,6.52,18.84,8.08,28.78,10.87,44.92,3.5,20.21,6.23,41.61,6.23,41.61H706s-3.28-34.77-6.55-61.95-8-60.69-7.27-70.75,2.55-22.46,0-36.55-8-17.8-8-17.8l-19.74-.89Z" style="fill:#263238"></path><path d="M675.88,283.26a4.17,4.17,0,0,1,.36.71,13.8,13.8,0,0,1,.79,2.14,28.15,28.15,0,0,1,.77,8.33,54.91,54.91,0,0,1-1.91,12.27,39.64,39.64,0,0,1-2.54,6.9,49.54,49.54,0,0,1-4.21,6.67c-3.16,4.36-4.72,9.32-5.9,13.8A98.28,98.28,0,0,0,661,346.24c-.43,3.5-.69,6.34-.88,8.31-.1.95-.17,1.7-.23,2.26a5,5,0,0,1-.11.79,4.9,4.9,0,0,1,0-.8c0-.56.08-1.32.14-2.27.13-2,.34-4.82.73-8.33A94,94,0,0,1,662.8,334a59.81,59.81,0,0,1,2.2-7,33.11,33.11,0,0,1,1.63-3.55,36.1,36.1,0,0,1,2.11-3.41,49.41,49.41,0,0,0,4.18-6.6,39.26,39.26,0,0,0,2.53-6.81,55.64,55.64,0,0,0,2-12.16,29.87,29.87,0,0,0-.6-8.27,16.47,16.47,0,0,0-.7-2.15A5.63,5.63,0,0,1,675.88,283.26Z" style="fill:#455a64"></path><path d="M678.65,192.72,658,189.93S639,211.35,634.9,231.79c-1.64,8.11-.56,24.73-.56,24.73-3.24,20.26-8.5,44.11-8.5,44.11l48.92-.92v-10.8L677.42,299l16.42-5L683.23,260c.09.27,6.52-22.41,8.79-31.67a98.66,98.66,0,0,0,2.35-25.81C694.2,200.4,684.15,193.67,678.65,192.72Z" style="fill:#000000"></path><g style="opacity:0.30000000000000004"><path d="M640.08,231.6,625,261.15c3.91-.13,6.69-1.76,9.35-4.63a42.26,42.26,0,0,0,6.27-9.87c4.49-8.82,8.81-18,9.7-27.87A107.08,107.08,0,0,0,640.08,231.6Z"></path></g><path d="M595.31,224.24c.22.32,22,12.76,22,12.76s10.19-19.38,13.44-26.14,8.39-16.2,13.59-19.13,13.52-1.19,13.52-1.19l-4.44,25.28L645,234s-10,20-15.52,24.69c-5,4.25-12.78,2.54-16.33.47s-26.78-22.09-26.78-22.09Z" style="fill:#000000"></path><path d="M691.5,199.58s7,5.26,7.75,10.54c.58,4.37,3.91,32.9,5.52,44.06A16.41,16.41,0,0,1,701.39,267c-2.79,3.37-7,5.74-12.69,1.75-3.92-2.74-13.94-13.95-13.94-13.95l16.48-51.61" style="fill:#000000"></path><path d="M679.39,260.61a24.89,24.89,0,0,1-3.27-.4c-2-.28-4.79-.66-7.88-1s-5.88-.54-7.91-.68a26.1,26.1,0,0,1-3.28-.29,2.78,2.78,0,0,1,.89-.07c.57,0,1.39,0,2.41,0,2,.05,4.85.21,7.94.53s5.88.76,7.89,1.13c1,.19,1.81.35,2.36.48A2.86,2.86,0,0,1,679.39,260.61Z" style="fill:#263238"></path><path d="M687.5,274.21a4.84,4.84,0,0,1-.38-1l-.92-2.86L683,260.08l0-.06,0-.07c1.32-4.7,2.88-10.29,4.56-16.28l6.19-21.56c.81-2.7,1.46-4.91,1.94-6.52.23-.72.41-1.3.55-1.76a3.34,3.34,0,0,1,.23-.61,2.55,2.55,0,0,1-.12.64c-.12.46-.27,1.06-.45,1.79-.44,1.62-1,3.84-1.77,6.56-1.57,5.6-3.69,13.2-6,21.61-1.71,6-3.3,11.56-4.64,16.26V260c1.24,4.23,2.26,7.77,3,10.33l.8,2.89A6.28,6.28,0,0,1,687.5,274.21Z" style="fill:#263238"></path><path d="M655.21,190.57a14.38,14.38,0,0,1,5.37-2,91.91,91.91,0,0,1,14.4,0,7.63,7.63,0,0,1,3.48,1l3.53,5.09Z" style="fill:#000000"></path><path d="M655.19,206.45c-.18.06-.72-3.9-3.49-7.79s-6.25-5.79-6.13-5.94A7.75,7.75,0,0,1,647.8,194a18.31,18.31,0,0,1,7,10A7.61,7.61,0,0,1,655.19,206.45Z" style="fill:#263238"></path><path d="M682,193.74a30.11,30.11,0,0,1-3.83-.41L669,192.19c-3.6-.45-6.86-.9-9.2-1.3-1.18-.2-2.12-.38-2.77-.52a3.42,3.42,0,0,1-1-.28,32.79,32.79,0,0,1,3.82.41l9.22,1.15c3.59.44,6.85.89,9.2,1.3,1.17.2,2.11.37,2.77.52A3.83,3.83,0,0,1,682,193.74Z" style="fill:#263238"></path><path d="M653.39,216.11a3.61,3.61,0,0,1-.22.6l-.72,1.69c-.63,1.46-1.58,3.56-2.78,6.13-2.4,5.16-5.86,12.22-10,19.88a79.05,79.05,0,0,1-6.29,10.52,21.78,21.78,0,0,1-3.76,3.84A13,13,0,0,1,625.5,261a14.13,14.13,0,0,1-6.73.35,13.46,13.46,0,0,1-1.78-.48,3.26,3.26,0,0,1-.59-.25c0-.05.84.27,2.4.53a14.19,14.19,0,0,0,6.59-.5,12.52,12.52,0,0,0,4-2.16,21.38,21.38,0,0,0,3.65-3.8,80.41,80.41,0,0,0,6.21-10.47c4.1-7.65,7.6-14.68,10.09-19.79l2.92-6.06.81-1.65A3,3,0,0,1,653.39,216.11Z" style="fill:#263238"></path><path d="M658.62,171.64c0-.26,1.71,0,3.17-1.2s1.58-3.06,1.82-3,.26.46.14,1.22a4.21,4.21,0,0,1-1.42,2.55,3.7,3.7,0,0,1-2.64.89C659,172,658.59,171.75,658.62,171.64Z" style="fill:#263238"></path></g><g id="freepik--character-1--inject-19"><path d="M132.87,441.36l-.76,19.77s19.84,7.4,20.06,11.07l-38.38-.08-.09-30.85Z" style="fill:#263238"></path><path d="M120.25,459.44a1.58,1.58,0,0,0-1.09,1.79,1.51,1.51,0,0,0,1.76,1.09,1.66,1.66,0,0,0,1.15-1.9,1.56,1.56,0,0,0-2-.93" style="fill:#e0e0e0"></path><path d="M113.79,472.12l.11-3.11,36.76,1.24s1.71.74,1.51,1.95Z" style="fill:#455a64"></path><path d="M132.74,460.93c0,.19-1,.27-1.87.87s-1.42,1.39-1.59,1.32.11-1.16,1.24-1.87S132.78,460.76,132.74,460.93Z" style="fill:#fff"></path><path d="M136.76,462.61c0,.18-.77.5-1.41,1.29s-.82,1.63-1,1.62-.3-1.07.51-2S136.76,462.43,136.76,462.61Z" style="fill:#fff"></path><path d="M139,467.43c-.17,0-.43-.9.05-1.92s1.36-1.43,1.44-1.28-.47.71-.85,1.55S139.22,467.41,139,467.43Z" style="fill:#fff"></path><path d="M132.41,456.41c-.08.17-.94-.09-2,0s-1.88.4-2,.24.7-.83,1.95-.89S132.5,456.26,132.41,456.41Z" style="fill:#fff"></path><path d="M88.36,440,86.29,463.8l3.79,19.33A2.46,2.46,0,0,1,88,486h0a2.46,2.46,0,0,1-2.11-.77c-3.42-3.73-15.93-17.51-15.68-19.25.29-2,.52-25.29.52-25.29Z" style="fill:#263238"></path><path d="M88,486,70.29,464.41l-.06,1a3.63,3.63,0,0,0,.72,2.44c1.4,1.88,5.38,7,14.85,17.4A2.45,2.45,0,0,0,88,486Z" style="fill:#455a64"></path><g style="opacity:0.6000000000000001"><path d="M75.69,457a1.48,1.48,0,0,1,.28,2,1.42,1.42,0,0,1-1.94.29,1.56,1.56,0,0,1-.29-2.07,1.47,1.47,0,0,1,2.05-.09" style="fill:#fff"></path></g><path d="M83.19,475.25a7.53,7.53,0,0,1,2.22-1.72,7.22,7.22,0,0,1,2.78-.35c0-.06-.27-.26-.82-.38a3.83,3.83,0,0,0-2.17.24,3.91,3.91,0,0,0-1.7,1.36C83.19,474.88,83.13,475.23,83.19,475.25Z" style="fill:#fff"></path><path d="M84.69,478.56a18.15,18.15,0,0,1,2.18-.89,16.92,16.92,0,0,1,2.35-.15,2.72,2.72,0,0,0-2.47-.37C85.32,477.48,84.57,478.49,84.69,478.56Z" style="fill:#fff"></path><path d="M80.29,471a22.9,22.9,0,0,1,3.27-1.6,24.46,24.46,0,0,1,3.6-.6,6.71,6.71,0,0,0-6.87,2.2Z" style="fill:#fff"></path><path d="M80.31,463.65c.06.15,1.41-.32,3.13-.27s3.06.54,3.12.4a6.08,6.08,0,0,0-6.25-.13Z" style="fill:#fff"></path><path d="M80.75,456.63a12.69,12.69,0,0,1,3.25-.37,12,12,0,0,1,3.11,1s-.2-.36-.73-.71a5.18,5.18,0,0,0-2.33-.81,5.39,5.39,0,0,0-2.45.33C81,456.32,80.72,456.58,80.75,456.63Z" style="fill:#fff"></path><path d="M84,454.93a2,2,0,0,0,.09-.9,6.3,6.3,0,0,0-.56-2.42,2.83,2.83,0,0,0-1.11-1.4,1,1,0,0,0-1.12.15,1.54,1.54,0,0,0-.45,1.05,3.47,3.47,0,0,0,2.82,3.4A4,4,0,0,0,87.79,453a1.39,1.39,0,0,0,.14-1.15,1,1,0,0,0-1-.58,3.37,3.37,0,0,0-1.62.72,7,7,0,0,0-1.75,1.75,2.11,2.11,0,0,0-.42.8,11.38,11.38,0,0,1,2.37-2.24,3.09,3.09,0,0,1,1.44-.59.51.51,0,0,1,.53.31.93.93,0,0,1-.14.75,3.6,3.6,0,0,1-3.55,1.56,3,3,0,0,1-2.44-2.85,1.2,1.2,0,0,1,.28-.75.55.55,0,0,1,.62-.09,2.55,2.55,0,0,1,1,1.18A9.38,9.38,0,0,1,84,454.93Z" style="fill:#fff"></path><path d="M151.56,279.5a84.84,84.84,0,0,1,1.85,25c-.41,5.31-18.33,152.24-18.33,152.24h-24.2l6.8-138.09-2,.43S102.49,378,101.42,387.5c-1,8.57-12.11,70.84-12.11,70.84l-22.13.26,7.07-82.37,8.22-79,3.09-23Z" style="fill:#263238"></path><path d="M117.62,309.27s0,.06.16.16a1.54,1.54,0,0,0,.59.28,2.74,2.74,0,0,0,2.29-.54,4.57,4.57,0,0,0,1.57-3.13c.17-1.32.2-2.73.3-4.23.16-3,.28-5.69.34-7.65a21.44,21.44,0,0,0,0-3.18,20.39,20.39,0,0,0-.34,3.16c-.15,2-.32,4.66-.49,7.65-.09,1.49-.11,2.93-.25,4.19a4.32,4.32,0,0,1-1.34,2.92,2.66,2.66,0,0,1-2.06.63C117.88,309.45,117.65,309.22,117.62,309.27Z" style="fill:#455a64"></path><path d="M83.06,295.38a2,2,0,0,0,.67.24,12.29,12.29,0,0,0,1.94.33,14,14,0,0,0,11.64-4.68,11.92,11.92,0,0,0,1.17-1.57c.24-.4.35-.63.32-.65s-.6.82-1.73,2a14.81,14.81,0,0,1-11.38,4.57C84.06,295.55,83.07,295.3,83.06,295.38Z" style="fill:#455a64"></path><path d="M142.73,288.91a7.82,7.82,0,0,0,.37,2.43,18.13,18.13,0,0,0,6.48,9.75,7.63,7.63,0,0,0,2.1,1.28,22,22,0,0,1-9-13.46Z" style="fill:#455a64"></path><path d="M139.6,132.34a4.47,4.47,0,0,0,1.45-8.78,4.65,4.65,0,0,0-4.45-7.63A5.57,5.57,0,0,0,128,111.8a6.26,6.26,0,0,0-7.71.24,4.45,4.45,0,0,0-3.54,7.74" style="fill:#263238"></path><path d="M119.54,116.49l1,0a19,19,0,0,1,19.75,16.48c1.19,9.12,2.39,19.21,2.58,24.12.38,10.18-9.72,12.26-9.72,12.26l1.47,12.18-24.72.46-4.38-44.2C104.07,127.24,109,117.64,119.54,116.49Z" style="fill:#ae7461"></path><path d="M133.23,169.29a24.66,24.66,0,0,1-13.52-3.23s3.5,7.16,13.6,5.74Z" style="fill:#6f4439"></path><path d="M137.82,142.31a1.47,1.47,0,0,1-1.33,1.54,1.39,1.39,0,0,1-1.56-1.24,1.44,1.44,0,0,1,1.32-1.53A1.39,1.39,0,0,1,137.82,142.31Z" style="fill:#263238"></path><path d="M138.34,138c-.17.2-1.31-.56-2.87-.47s-2.67.92-2.85.73.08-.43.56-.82a4,4,0,0,1,2.27-.82,3.82,3.82,0,0,1,2.3.62C138.24,137.59,138.42,137.93,138.34,138Z" style="fill:#263238"></path><path d="M123.35,142.71a1.46,1.46,0,0,1-1.33,1.53,1.39,1.39,0,0,1-1.56-1.23,1.45,1.45,0,0,1,1.33-1.54A1.4,1.4,0,0,1,123.35,142.71Z" style="fill:#263238"></path><path d="M123,139.07c-.17.2-1.31-.56-2.87-.48s-2.67.92-2.85.74.08-.43.56-.82a4,4,0,0,1,2.27-.83,3.89,3.89,0,0,1,2.3.62C122.9,138.65,123.08,139,123,139.07Z" style="fill:#263238"></path><path d="M129.24,150.38a10.12,10.12,0,0,1,2.52-.59c.39-.06.77-.16.82-.43a2.05,2.05,0,0,0-.32-1.17l-1.34-3c-1.85-4.25-3.21-7.74-3-7.82s1.81,3.31,3.67,7.56l1.28,3a2.27,2.27,0,0,1,.28,1.55,1,1,0,0,1-.62.62,2.71,2.71,0,0,1-.68.12A10.64,10.64,0,0,1,129.24,150.38Z" style="fill:#263238"></path><path d="M124.05,133c-.19.41-1.55,0-3.2.07s-3,.37-3.2,0c-.07-.19.21-.56.78-.91a4.88,4.88,0,0,1,2.45-.64,4.75,4.75,0,0,1,2.43.61C123.87,132.43,124.13,132.8,124.05,133Z" style="fill:#263238"></path><path d="M138.09,131.57c-.31.37-1.61.06-3.17.12s-2.85.38-3.17,0c-.14-.17.05-.54.61-.91a5.42,5.42,0,0,1,5.11-.12C138,131,138.23,131.39,138.09,131.57Z" style="fill:#263238"></path><path d="M139.07,128.32s-3-6.24-6.14-7.57c-3.81-1.62-5.21,2.54-8.8,1.73s-7.23-2.36-10.71.55c-3.82,3.2-1.85,5.21-1.87,9.73-.09,18.34-3.17,23.68-4.55,15.11-.15-.93-2.81-1.56-3.39-5.52-.76-5.15-1.28-11.42-.3-15.15.82-3.14,2.47-5.36,5.52-7.88,4.81-4,11.66-4.39,16.34-4.15S139.1,120.32,139.07,128.32Z" style="fill:#263238"></path><path d="M107.63,147.57a2.77,2.77,0,0,0-3.11-2.52c-1.89.28-3.94,1.46-3.62,5.37.56,6.94,7.42,4.94,7.41,4.74S107.9,150.47,107.63,147.57Z" style="fill:#ae7461"></path><path d="M106.59,152.67s-.12.1-.31.21a1.18,1.18,0,0,1-.9.09,3,3,0,0,1-1.61-2.57,4.05,4.05,0,0,1,.2-1.76,1.4,1.4,0,0,1,.83-1,.61.61,0,0,1,.74.27c.11.19.08.33.12.34s.14-.13.06-.41a.78.78,0,0,0-.31-.41.92.92,0,0,0-.68-.13,1.73,1.73,0,0,0-1.18,1.18,4.11,4.11,0,0,0-.26,2c.16,1.4,1,2.65,2,2.86a1.33,1.33,0,0,0,1.09-.28C106.59,152.84,106.61,152.68,106.59,152.67Z" style="fill:#6f4439"></path><path d="M107.1,134.09a6.57,6.57,0,0,0,3,1.21,2.26,2.26,0,0,0,2.44-1.72c.06-.49-.09-1,.21-1.43s1.07-.36,1.65-.33c2,.12,4.28-2.23,4.7-4.23a1.82,1.82,0,0,0,2.45.39,6.49,6.49,0,0,0,1.6-1.58,2.88,2.88,0,0,1,2.33-1.31,6.81,6.81,0,0,0,1.53.26c.91-.13,1.3-1.22,1.39-2.13s.15-2,.9-2.51a3.66,3.66,0,0,1,2.48-.19c.85.08,1.92-.17,2.1-1a1.67,1.67,0,0,0-.38-1.25,4.5,4.5,0,0,0-5.4-1.44,6.11,6.11,0,0,0-11.27-.62,6.2,6.2,0,0,0-9.79,2.75,4.49,4.49,0,0,0-4.73,6.78,4.26,4.26,0,0,0-2.18,3.51c0,1.44,1.52,2.8,2.89,2.36a2.49,2.49,0,0,0,4.42,2.26" style="fill:#263238"></path><path d="M128.73,118.85s0,.05,0,.13,0,.21,0,.37a4.29,4.29,0,0,1-.44,1.37,4.9,4.9,0,0,1-1.46,1.72,4.62,4.62,0,0,1-2.8,1l.11-.16a2.54,2.54,0,0,1-.05,1.93,7.33,7.33,0,0,1-1.1,1.77,5.13,5.13,0,0,1-.74.83,2.38,2.38,0,0,1-1.08.47,2.54,2.54,0,0,1-2.28-.69l.26-.09a5.24,5.24,0,0,1-2,3.72,3.8,3.8,0,0,1-2.24.86,7.08,7.08,0,0,1-2.28-.38l.19-.09a5.59,5.59,0,0,1-1.54,2.22,2.93,2.93,0,0,1-2.39.78,3.81,3.81,0,0,1-3.1-2.85l.16.07a3.61,3.61,0,0,1-2.37.47,4,4,0,0,1-1.7-.66,3.27,3.27,0,0,1-.82-.81c-.14-.23-.2-.35-.2-.35a4.49,4.49,0,0,0,1.08,1.06,3.82,3.82,0,0,0,1.66.59,3.47,3.47,0,0,0,2.24-.48l.12-.08,0,.14a3.61,3.61,0,0,0,2.93,2.64,2.62,2.62,0,0,0,2.16-.73,5.25,5.25,0,0,0,1.45-2.11l0-.14.13,0a6.7,6.7,0,0,0,2.18.37,3.54,3.54,0,0,0,2.07-.8,5,5,0,0,0,1.92-3.51l0-.33.23.25a2.27,2.27,0,0,0,2,.61,2.18,2.18,0,0,0,1-.41,5.26,5.26,0,0,0,.69-.78,7,7,0,0,0,1.09-1.7,2.29,2.29,0,0,0,.06-1.74l-.06-.16H124a4.46,4.46,0,0,0,2.69-.87,5.15,5.15,0,0,0,1.46-1.63A5.34,5.34,0,0,0,128.73,118.85Z" style="fill:#455a64"></path><path d="M129.17,155.74c-.06-.26-1.75.19-3.33-1s-1.87-3-2.11-2.93-.22.49,0,1.26a4.32,4.32,0,0,0,1.66,2.47,3.76,3.76,0,0,0,2.76.68C128.84,156.15,129.21,155.85,129.17,155.74Z" style="fill:#263238"></path><path d="M201.68,216l-26.07,20.3s-3.46-15.22-12.69-38a47.93,47.93,0,0,0-4.27-8.26l-.31-.62c-3.46-6.45-10.72-9.3-15.23-9.58-.69,0-2.39,0-4.77.13l-1.68-.55-1.93-5.74-4.61,5.09-22-10.4L106,176.52l-15.66,6.91h0s-14.41,3.22-16.24,15.62c-2.12,14.27-4,46.93-4,46.93L88,236.83l-4.31,32.65,1.06,12,41,6.7a23.22,23.22,0,0,0,6.66,0l20.18-3,2.44-5.75-2.28-36.42v-2.37c2.51,6.45,8.32,19.81,14.25,22,5.75,2.15,36.38-26.46,36.38-26.46Z" style="fill:#000000"></path><path d="M108.12,168.39a56.29,56.29,0,0,1,8.78,4.09c6.19,3.3,13.22,6.31,13.22,6.31l-.53,9.94L106,176.52" style="fill:#e0e0e0"></path><polyline points="134.73 173.7 130.12 178.79 134.28 186.2 136.69 179.82" style="fill:#e0e0e0"></polyline><g style="opacity:0.30000000000000004"><path d="M130.21,179.89c.2.16,1.48,12.29,1.48,12.29L108.22,178l21.37,10.73Z"></path></g><path d="M130.05,225.19c-.35-9.29,1.11-33,1.11-33l3.06-.49A346.43,346.43,0,0,1,142.07,243c.86,11.42.86,24.64.86,24.64l-6.15,13.19L130,267.68S130.48,236.47,130.05,225.19Z" style="fill:#000000"></path><path d="M85.76,186.27s.64.57,1.59,1.54a19.18,19.18,0,0,1,5,9.26c.29,1.33.36,2.18.42,2.17a2.3,2.3,0,0,0,0-.6,11.71,11.71,0,0,0-.19-1.62,17.29,17.29,0,0,0-5-9.37,14.77,14.77,0,0,0-1.24-1.06C86,186.37,85.78,186.25,85.76,186.27Z" style="fill:#263238"></path><path d="M152.71,200.19c-.09,0-.16,12.12-.16,27.06s.07,27.06.16,27.06.16-12.11.16-27.06S152.8,200.19,152.71,200.19Z" style="fill:#263238"></path><path d="M129.9,178.71s.45.78,1.2,2,1.72,3,2.66,5l.22.48.15.32.15-.32a40.54,40.54,0,0,0,2-5c.2-.64.34-1.17.43-1.53a2.21,2.21,0,0,0,.11-.58,21.08,21.08,0,0,0-.76,2,51.33,51.33,0,0,1-2,4.89h.3l-.23-.49a40.89,40.89,0,0,0-2.76-5c-.4-.61-.74-1.09-1-1.42A2.62,2.62,0,0,0,129.9,178.71Z" style="fill:#263238"></path><path d="M106,176.52a2.06,2.06,0,0,0,.32.2l1,.49,3.5,1.81c3,1.54,7,3.72,11.47,6.12,2.73,1.45,5.31,2.8,7.56,3.92l.2.1v-.23c0-2.91.06-5.37.07-7.14v-2a6.63,6.63,0,0,0,0-.71,3.36,3.36,0,0,0-.06.71c0,.51,0,1.18-.08,2,0,1.77-.11,4.23-.18,7.14l.21-.13c-2.24-1.14-4.81-2.5-7.54-4-4.47-2.39-8.54-4.55-11.51-6-1.49-.75-2.71-1.33-3.55-1.72l-1-.44A1.54,1.54,0,0,0,106,176.52Z" style="fill:#263238"></path><path d="M149.88,184.18s.32.65.8,1.71a19.65,19.65,0,0,1,1.34,4.32,19.14,19.14,0,0,1,.28,4.51,18.64,18.64,0,0,0-.13,1.89,1.7,1.7,0,0,0,.14-.49,10.26,10.26,0,0,0,.22-1.38,16.37,16.37,0,0,0-1.65-9,11,11,0,0,0-.69-1.21C150,184.31,149.9,184.17,149.88,184.18Z" style="fill:#263238"></path><path d="M83.31,186.91s-7.26,5.23-8.17,8.12-4.77,49.81-5.45,55.39-1.36,16,3,19.43,13.62,5.95,13.62,5.95l8.59-17.75-4.55-9.53,4.55-35.64Z" style="fill:#000000"></path><path d="M84.18,275.18a1.63,1.63,0,0,1,.47,0,10.78,10.78,0,0,0,1.33-.08,10,10,0,0,0,4.65-1.69,12.69,12.69,0,0,0,4.43-6.06,27.85,27.85,0,0,0,1.68-9.55l0,.12-6.67-9.23,0-.07v-.09c0-.24.07-.5.1-.75,1.28-10,2.44-19,3.29-25.64.42-3.25.76-5.89,1-7.77.11-.88.21-1.59.27-2.11a4.63,4.63,0,0,1,.11-.74.58.58,0,0,1,0,.19c0,.13,0,.31,0,.56,0,.52-.12,1.23-.2,2.12-.18,1.84-.48,4.5-.86,7.79-.77,6.57-1.88,15.64-3.16,25.65,0,.26-.07.52-.1.75l0-.16,6.65,9.25,0,.06v.06a27.79,27.79,0,0,1-1.77,9.69,12.84,12.84,0,0,1-4.62,6.15,9,9,0,0,1-2.65,1.23l-.59.16-.56.1a7.88,7.88,0,0,1-1,.12,7.62,7.62,0,0,1-1.35,0Z" style="fill:#263238"></path><path d="M75.41,251.81a7.47,7.47,0,0,1,1.91-1.36,17.69,17.69,0,0,1,11-2.13,8.1,8.1,0,0,1,2.28.54,26.38,26.38,0,0,0-7.84.09A26.06,26.06,0,0,0,75.41,251.81Z" style="fill:#263238"></path><rect x="98.5" y="213.61" width="114.44" height="64.18" rx="3.92" transform="translate(-55.98 46.2) rotate(-14.33)" style="fill:#fff"></rect><path d="M215.31,263.59a6.84,6.84,0,0,0,.83-.35,3.94,3.94,0,0,0,1.74-1.9,3.79,3.79,0,0,0,.29-1.88,19.05,19.05,0,0,0-.54-2.29c-.43-1.65-.92-3.56-1.48-5.7-2.22-8.6-5.42-21-9.38-36.37q-.74-2.88-1.51-5.9c-.26-1-.52-2-.78-3-.14-.52-.27-1-.4-1.55a4.3,4.3,0,0,0-.58-1.43,3.71,3.71,0,0,0-2.53-1.64,8.27,8.27,0,0,0-3.19.5l-6.66,1.71-28.83,7.39L96.21,228.05A3.67,3.67,0,0,0,93.5,231a4.54,4.54,0,0,0,.21,2.11l.56,2.17c.73,2.9,1.47,5.77,2.2,8.63q2.19,8.55,4.3,16.86T104.92,277q1,4,2,7.9c.16.65.33,1.29.49,1.94a3.87,3.87,0,0,0,.81,1.68,3.68,3.68,0,0,0,3.32,1.27l54-13.7,36.41-9.22,9.9-2.48,2.58-.63.89-.2-.87.25-2.57.68L202,267.1l-36.37,9.37-54,13.83a4.17,4.17,0,0,1-3.76-1.44A4.3,4.3,0,0,1,107,287c-.16-.65-.33-1.29-.5-1.94-.66-2.6-1.34-5.23-2-7.89q-2-8-4.16-16.28T96,244l-2.21-8.62-.55-2.17A4.93,4.93,0,0,1,93,230.9a4.19,4.19,0,0,1,3.09-3.35l66.09-16.87L191,203.33l6.66-1.69,1.62-.41a4.1,4.1,0,0,1,4.54,1.73,4.39,4.39,0,0,1,.62,1.55c.14.52.27,1,.4,1.55.26,1,.52,2,.77,3.05l1.5,5.9,9.22,36.41c.54,2.14,1,4.05,1.43,5.71a20.1,20.1,0,0,1,.52,2.31,3.86,3.86,0,0,1-.33,1.94,4,4,0,0,1-1.81,1.91A3.14,3.14,0,0,1,215.31,263.59Z" style="fill:#263238"></path><path d="M128.66,240.39,110.81,245a3.21,3.21,0,0,1-3.89-2.31h0a3.2,3.2,0,0,1,2.31-3.89l17.85-4.56a3.19,3.19,0,0,1,3.89,2.3h0A3.21,3.21,0,0,1,128.66,240.39Z" style="fill:#000000"></path><path d="M110,245.07a3.22,3.22,0,0,1-3.12-2.43,3.23,3.23,0,0,1,2.32-3.92l17.85-4.56a3.23,3.23,0,0,1,1.6,6.25L110.82,245A3.19,3.19,0,0,1,110,245.07Zm17.85-11a3.06,3.06,0,0,0-.79.1l-17.84,4.56a3.17,3.17,0,0,0-2.29,3.86,3.16,3.16,0,0,0,3.86,2.29l17.84-4.56v0a3.17,3.17,0,0,0,.84-5.8A3.12,3.12,0,0,0,127.87,234.11Z" style="fill:#fff"></path><path d="M195.41,238.85l-80.87,20.67a3.2,3.2,0,0,1-3.89-2.31h0a3.19,3.19,0,0,1,2.3-3.89l80.88-20.66a3.19,3.19,0,0,1,3.89,2.3h0A3.2,3.2,0,0,1,195.41,238.85Z" style="fill:#e0e0e0"></path><path d="M113.74,259.64a3.22,3.22,0,0,1-.79-6.34l80.87-20.67a3.23,3.23,0,0,1,3.92,2.33,3.17,3.17,0,0,1-.35,2.44,3.24,3.24,0,0,1-2,1.48v0l-80.88,20.66A3.08,3.08,0,0,1,113.74,259.64Zm80.88-27.06a3,3,0,0,0-.78.1L113,253.35a3.17,3.17,0,0,0-.83,5.8,3.11,3.11,0,0,0,2.4.34l80.88-20.66A3.19,3.19,0,0,0,197.7,235,3.19,3.19,0,0,0,194.62,232.58Z" style="fill:#fff"></path><path d="M195.54,213.05a1.64,1.64,0,1,1-3.18.81,1.64,1.64,0,0,1,3.18-.81Z" style="fill:#263238"></path><path d="M194,215.12a1.67,1.67,0,1,1,1.61-2.08h0a1.66,1.66,0,0,1-.18,1.27,1.64,1.64,0,0,1-1,.76A1.44,1.44,0,0,1,194,215.12Zm0-3.28a1.83,1.83,0,0,0-.4,0,1.62,1.62,0,1,0,.8,3.13,1.58,1.58,0,0,0,1-.74,1.63,1.63,0,0,0,.18-1.22h0a1.64,1.64,0,0,0-1.57-1.22Z" style="fill:#fff"></path><path d="M196.58,217.11a1.65,1.65,0,1,1-2-1.19A1.64,1.64,0,0,1,196.58,217.11Z" style="fill:#263238"></path><path d="M195,219.18a1.69,1.69,0,0,1-.84-.23,1.67,1.67,0,0,1,.43-3,1.66,1.66,0,0,1,2,1.2h0a1.67,1.67,0,0,1-1.2,2A2,2,0,0,1,195,219.18Zm0-3.29a1.34,1.34,0,0,0-.4.06,1.61,1.61,0,0,0-.43,3,1.65,1.65,0,0,0,1.23.18,1.62,1.62,0,0,0,1.16-2h0a1.58,1.58,0,0,0-.74-1A1.61,1.61,0,0,0,195,215.89Z" style="fill:#fff"></path><path d="M197.61,221.16a1.64,1.64,0,1,1-2-1.18A1.64,1.64,0,0,1,197.61,221.16Z" style="fill:#263238"></path><path d="M196,223.23a1.6,1.6,0,0,1-.85-.23,1.67,1.67,0,0,1,1.7-2.87,1.65,1.65,0,0,1,.77,1h0a1.68,1.68,0,0,1-1.21,2A1.4,1.4,0,0,1,196,223.23Zm0-3.28a1.9,1.9,0,0,0-.4.05,1.61,1.61,0,0,0-1.16,2,1.6,1.6,0,0,0,2,1.16,1.61,1.61,0,0,0,1.17-2h0a1.61,1.61,0,0,0-.74-1A1.65,1.65,0,0,0,196,220Z" style="fill:#fff"></path><path d="M124.89,273a4.69,4.69,0,1,1-5.71-3.38A4.7,4.7,0,0,1,124.89,273Z" style="fill:#000000"></path><path d="M120.34,278.91a4.76,4.76,0,0,1-2.4-.66,4.72,4.72,0,0,1-1.65-6.46,4.71,4.71,0,0,1,8.62,1.23,4.73,4.73,0,0,1-4.57,5.89Zm0-9.39a4.66,4.66,0,0,0-4.52,5.83,4.67,4.67,0,0,0,5.67,3.36,4.68,4.68,0,0,0,3.37-5.67,4.63,4.63,0,0,0-2.14-2.86A4.69,4.69,0,0,0,120.35,269.52Z" style="fill:#fff"></path><path d="M137.76,269.38a4.69,4.69,0,1,1-5.71-3.38A4.7,4.7,0,0,1,137.76,269.38Z" style="fill:#455a64"></path><path d="M133.21,275.26a4.72,4.72,0,1,1,4.57-5.88h0a4.72,4.72,0,0,1-4.57,5.88Zm0-9.38a4.53,4.53,0,0,0-1.15.14,4.67,4.67,0,1,0,5.67,3.37h0A4.67,4.67,0,0,0,133.21,265.88Z" style="fill:#fff"></path><path d="M202.21,255a2.51,2.51,0,0,1-2.43-1.89l-.75-2.94a.12.12,0,0,1,.09-.15.11.11,0,0,1,.15.09l.75,2.94a2.27,2.27,0,0,0,2.75,1.63,2.26,2.26,0,0,0,1.38-1,2.2,2.2,0,0,0,.24-1.7l-1.31-5.15a1.61,1.61,0,0,0-.75-1,1.67,1.67,0,0,0-1.24-.18,1.63,1.63,0,0,0-1.17,2l1.31,5.14a.8.8,0,0,0,1.45.21.83.83,0,0,0,.08-.6l-1.22-4.79a.12.12,0,0,1,.09-.15.13.13,0,0,1,.15.09l1.23,4.79a1.09,1.09,0,0,1-.12.79,1,1,0,0,1-1.9-.27l-1.32-5.15a1.86,1.86,0,0,1,.21-1.42,1.87,1.87,0,0,1,2.58-.66,1.83,1.83,0,0,1,.86,1.15l1.32,5.14a2.48,2.48,0,0,1-.28,1.9,2.44,2.44,0,0,1-1.53,1.15A2.7,2.7,0,0,1,202.21,255Z" style="fill:#263238"></path><path d="M102.08,265.47s2.91-2.25,5.07-2.35,5,.75,5.54.47,1.87-1.51,2.72-.47,1.87,4.79-2.63,5.82h-3.1a15.19,15.19,0,0,0,1.13,4.32c.75,1.22,11.26,14.46,11.26,14.46s1.32,1.31.66,2.63-3.47.56-3.47.56a4.51,4.51,0,0,1-4.23.94,16.34,16.34,0,0,1-3.19-1.5,4.18,4.18,0,0,1-5.07,0c-2.63-2-11.39-13-11.39-13l3.13-12.29Z" style="fill:#ae7461"></path><path d="M93,258.21l9.12,7.26-6.7,11.92L82,272.54S82.4,258.46,93,258.21Z" style="fill:#ae7461"></path><path d="M203.67,221.23s.46-3.18,7.16-2.1c4.2.68,2,3.4,2,3.4a2.56,2.56,0,0,1-.45,4.19l.44.33s3.34,1.67.46,4.65a3,3,0,0,1-.39,3.37c-1.44,1.44-5-.48-5-.48s-5.1-.09-5.39-1.43a1.85,1.85,0,0,1,1-2.08,27.77,27.77,0,0,1,3.56-.43s-4.45-.05-4.86-.93c-.72-1.55-.53-3.14,4.86-2.95h0s-4-.08-4.47-.92.11-2.13,1.55-2.8a5.87,5.87,0,0,1,2.73-.57S203.09,223.25,203.67,221.23Z" style="fill:#ae7461"></path></g></svg>
